<svg width="414" height="817" viewBox="0 0 414 817" fill="none" xmlns="http://www.w3.org/2000/svg">
<mask id="mask0_14_385" style="mask-type:alpha" maskUnits="userSpaceOnUse" x="0" y="0" width="414" height="817">
<path d="M0 0H414V777C414 799.091 396.091 817 374 817H40C17.9086 817 0 799.091 0 777V0Z" fill="#FF3E3E"/>
</mask>
<g mask="url(#mask0_14_385)">
<path d="M425.739 499.385C446.998 435.471 548.84 454.247 544.779 521.333L508.564 1119.67C507.34 1139.89 494.714 1157.8 475.406 1166.7L283.11 1255.38C235.108 1277.51 181.297 1234.29 197.228 1186.39L425.739 499.385Z" fill="#D9D9D9" fill-opacity="0.1"/>
<path d="M190.961 -1.52325L203.616 -12.3682L215.22 -1.22218L202.565 9.62272L190.961 -1.52325ZM203.616 -12.3682L216.271 -23.2131L227.875 -12.0671L215.22 -1.22218L203.616 -12.3682ZM216.271 -23.2131L228.926 -34.058L240.53 -22.912L227.875 -12.0671L216.271 -23.2131ZM228.926 -34.058L241.581 -44.9029L253.185 -33.7569L240.53 -22.912L228.926 -34.058ZM241.581 -44.9029L254.236 -55.7478L265.84 -44.6018L253.185 -33.7569L241.581 -44.9029ZM254.236 -55.7478L266.891 -66.5927L278.495 -55.4467L265.84 -44.6018L254.236 -55.7478ZM266.891 -66.5927L279.546 -77.4376L291.15 -66.2916L278.495 -55.4467L266.891 -66.5927ZM317.511 -109.972L330.166 -120.817L341.77 -109.671L329.115 -98.8263L317.511 -109.972ZM342.821 -131.662L355.476 -142.507L367.081 -131.361L354.426 -120.516L342.821 -131.662ZM368.131 -153.352L380.786 -164.197L392.391 -153.051L379.736 -142.206L368.131 -153.352ZM393.441 -175.042L406.096 -185.887L417.701 -174.741L405.046 -163.896L393.441 -175.042ZM418.751 -196.731L431.406 -207.576L443.011 -196.43L430.356 -185.585L418.751 -196.731ZM431.406 -207.576L444.061 -218.421L455.666 -207.275L443.011 -196.43L431.406 -207.576ZM444.061 -218.421L456.716 -229.266L468.321 -218.12L455.666 -207.275L444.061 -218.421ZM456.716 -229.266L469.372 -240.111L480.976 -228.965L468.321 -218.12L456.716 -229.266ZM469.372 -240.111L482.027 -250.956L493.631 -239.81L480.976 -228.965L469.372 -240.111ZM482.027 -250.956L494.682 -261.801L506.286 -250.655L493.631 -239.81L482.027 -250.956ZM494.682 -261.801L507.337 -272.646L518.941 -261.5L506.286 -250.655L494.682 -261.801ZM202.565 9.62272L215.22 -1.22218L226.824 9.92379L214.169 20.7687L202.565 9.62272ZM278.495 -55.4467L291.15 -66.2916L302.755 -55.1456L290.1 -44.3007L278.495 -55.4467ZM303.805 -77.1365L316.46 -87.9814L328.065 -76.8354L315.41 -65.9905L303.805 -77.1365ZM329.115 -98.8263L341.77 -109.671L353.375 -98.5252L340.72 -87.6803L329.115 -98.8263ZM367.081 -131.361L379.736 -142.206L391.34 -131.06L378.685 -120.215L367.081 -131.361ZM379.736 -142.206L392.391 -153.051L403.995 -141.905L391.34 -131.06L379.736 -142.206ZM392.391 -153.051L405.046 -163.896L416.65 -152.75L403.995 -141.905L392.391 -153.051ZM405.046 -163.896L417.701 -174.741L429.305 -163.595L416.65 -152.75L405.046 -163.896ZM430.356 -185.585L443.011 -196.43L454.615 -185.284L441.96 -174.44L430.356 -185.585ZM506.286 -250.655L518.941 -261.5L530.546 -250.354L517.89 -239.509L506.286 -250.655ZM214.169 20.7687L226.824 9.92379L238.429 21.0698L225.774 31.9147L214.169 20.7687ZM239.48 -0.921115L252.135 -11.766L263.739 -0.620045L251.084 10.2249L239.48 -0.921115ZM252.135 -11.766L264.79 -22.6109L276.394 -11.4649L263.739 -0.620045L252.135 -11.766ZM264.79 -22.6109L277.445 -33.4558L289.049 -22.3098L276.394 -11.4649L264.79 -22.6109ZM290.1 -44.3007L302.755 -55.1456L314.359 -43.9996L301.704 -33.1547L290.1 -44.3007ZM366.03 -109.37L378.685 -120.215L390.289 -109.069L377.634 -98.2241L366.03 -109.37ZM441.96 -174.44L454.615 -185.284L466.22 -174.138L453.565 -163.294L441.96 -174.44ZM467.27 -196.129L479.925 -206.974L491.53 -195.828L478.875 -184.983L467.27 -196.129ZM479.925 -206.974L492.58 -217.819L504.185 -206.673L491.53 -195.828L479.925 -206.974ZM492.58 -217.819L505.235 -228.664L516.84 -217.518L504.185 -206.673L492.58 -217.819ZM517.89 -239.509L530.546 -250.354L542.15 -239.208L529.495 -228.363L517.89 -239.509ZM225.774 31.9147L238.429 21.0698L250.033 32.2157L237.378 43.0606L225.774 31.9147ZM251.084 10.2249L263.739 -0.620045L275.343 10.5259L262.688 21.3708L251.084 10.2249ZM263.739 -0.620045L276.394 -11.4649L287.998 -0.318975L275.343 10.5259L263.739 -0.620045ZM276.394 -11.4649L289.049 -22.3098L300.654 -11.1639L287.998 -0.318975L276.394 -11.4649ZM301.704 -33.1547L314.359 -43.9996L325.964 -32.8537L313.309 -22.0088L301.704 -33.1547ZM327.014 -54.8445L339.669 -65.6894L351.274 -54.5435L338.619 -43.6986L327.014 -54.8445ZM339.669 -65.6894L352.324 -76.5343L363.929 -65.3884L351.274 -54.5435L339.669 -65.6894ZM352.324 -76.5343L364.979 -87.3792L376.584 -76.2333L363.929 -65.3884L352.324 -76.5343ZM377.634 -98.2241L390.289 -109.069L401.894 -97.9231L389.239 -87.0782L377.634 -98.2241ZM390.289 -109.069L402.944 -119.914L414.549 -108.768L401.894 -97.9231L390.289 -109.069ZM402.944 -119.914L415.6 -130.759L427.204 -119.613L414.549 -108.768L402.944 -119.914ZM415.6 -130.759L428.255 -141.604L439.859 -130.458L427.204 -119.613L415.6 -130.759ZM428.255 -141.604L440.91 -152.449L452.514 -141.303L439.859 -130.458L428.255 -141.604ZM453.565 -163.294L466.22 -174.138L477.824 -162.992L465.169 -152.148L453.565 -163.294ZM478.875 -184.983L491.53 -195.828L503.134 -184.682L490.479 -173.837L478.875 -184.983ZM491.53 -195.828L504.185 -206.673L515.789 -195.527L503.134 -184.682L491.53 -195.828ZM504.185 -206.673L516.84 -217.518L528.444 -206.372L515.789 -195.527L504.185 -206.673ZM529.495 -228.363L542.15 -239.208L553.754 -228.062L541.099 -217.217L529.495 -228.363ZM237.378 43.0606L250.033 32.2157L261.638 43.3617L248.983 54.2066L237.378 43.0606ZM262.688 21.3708L275.343 10.5259L286.948 21.6719L274.293 32.5168L262.688 21.3708ZM275.343 10.5259L287.998 -0.318975L299.603 10.827L286.948 21.6719L275.343 10.5259ZM287.998 -0.318975L300.654 -11.1639L312.258 -0.017905L299.603 10.827L287.998 -0.318975ZM313.309 -22.0088L325.964 -32.8537L337.568 -21.7077L324.913 -10.8628L313.309 -22.0088ZM351.274 -54.5435L363.929 -65.3884L375.533 -54.2424L362.878 -43.3975L351.274 -54.5435ZM414.549 -108.768L427.204 -119.613L438.808 -108.467L426.153 -97.622L414.549 -108.768ZM439.859 -130.458L452.514 -141.303L464.118 -130.157L451.463 -119.312L439.859 -130.458ZM465.169 -152.148L477.824 -162.992L489.429 -151.847L476.774 -141.002L465.169 -152.148ZM490.479 -173.837L503.134 -184.682L514.739 -173.536L502.084 -162.691L490.479 -173.837ZM503.134 -184.682L515.789 -195.527L527.394 -184.381L514.739 -173.536L503.134 -184.682ZM515.789 -195.527L528.444 -206.372L540.049 -195.226L527.394 -184.381L515.789 -195.527ZM541.099 -217.217L553.754 -228.062L565.359 -216.916L552.704 -206.071L541.099 -217.217ZM248.983 54.2066L261.638 43.3617L273.242 54.5077L260.587 65.3526L248.983 54.2066ZM324.913 -10.8628L337.568 -21.7077L349.172 -10.5617L336.517 0.283165L324.913 -10.8628ZM350.223 -32.5526L362.878 -43.3975L374.483 -32.2515L361.828 -21.4066L350.223 -32.5526ZM362.878 -43.3975L375.533 -54.2424L387.138 -43.0964L374.483 -32.2515L362.878 -43.3975ZM388.188 -65.0873L400.843 -75.9322L412.448 -64.7862L399.793 -53.9413L388.188 -65.0873ZM400.843 -75.9322L413.498 -86.7771L425.103 -75.6311L412.448 -64.7862L400.843 -75.9322ZM413.498 -86.7771L426.153 -97.622L437.758 -86.476L425.103 -75.6311L413.498 -86.7771ZM438.808 -108.467L451.463 -119.312L463.068 -108.166L450.413 -97.3209L438.808 -108.467ZM476.774 -141.002L489.429 -151.847L501.033 -140.701L488.378 -129.856L476.774 -141.002ZM552.704 -206.071L565.359 -216.916L576.963 -205.77L564.308 -194.925L552.704 -206.071ZM260.587 65.3526L273.242 54.5077L284.847 65.6536L272.192 76.4985L260.587 65.3526ZM273.242 54.5077L285.897 43.6628L297.502 54.8087L284.847 65.6536L273.242 54.5077ZM285.897 43.6628L298.552 32.8179L310.157 43.9638L297.502 54.8087L285.897 43.6628ZM298.552 32.8179L311.207 21.973L322.812 33.1189L310.157 43.9638L298.552 32.8179ZM311.207 21.973L323.862 11.1281L335.467 22.274L322.812 33.1189L311.207 21.973ZM323.862 11.1281L336.517 0.283165L348.122 11.4291L335.467 22.274L323.862 11.1281ZM336.517 0.283165L349.172 -10.5617L360.777 0.584235L348.122 11.4291L336.517 0.283165ZM361.828 -21.4066L374.483 -32.2515L386.087 -21.1056L373.432 -10.2607L361.828 -21.4066ZM387.138 -43.0964L399.793 -53.9413L411.397 -42.7954L398.742 -31.9505L387.138 -43.0964ZM412.448 -64.7862L425.103 -75.6311L436.707 -64.4852L424.052 -53.6403L412.448 -64.7862ZM437.758 -86.476L450.413 -97.3209L462.017 -86.175L449.362 -75.3301L437.758 -86.476ZM463.068 -108.166L475.723 -119.011L487.327 -107.865L474.672 -97.0199L463.068 -108.166ZM488.378 -129.856L501.033 -140.701L512.637 -129.555L499.982 -118.71L488.378 -129.856ZM501.033 -140.701L513.688 -151.545L525.292 -140.399L512.637 -129.555L501.033 -140.701ZM513.688 -151.545L526.343 -162.39L537.948 -151.244L525.292 -140.399L513.688 -151.545ZM526.343 -162.39L538.998 -173.235L550.603 -162.089L537.948 -151.244L526.343 -162.39ZM538.998 -173.235L551.653 -184.08L563.258 -172.934L550.603 -162.089L538.998 -173.235ZM551.653 -184.08L564.308 -194.925L575.913 -183.779L563.258 -172.934L551.653 -184.08ZM564.308 -194.925L576.963 -205.77L588.568 -194.624L575.913 -183.779L564.308 -194.925ZM386.087 -21.1056L398.742 -31.9505L410.346 -20.8045L397.691 -9.9596L386.087 -21.1056ZM398.742 -31.9505L411.397 -42.7954L423.002 -31.6494L410.346 -20.8045L398.742 -31.9505ZM411.397 -42.7954L424.052 -53.6403L435.657 -42.4943L423.002 -31.6494L411.397 -42.7954ZM449.362 -75.3301L462.017 -86.175L473.622 -75.029L460.967 -64.1841L449.362 -75.3301ZM462.017 -86.175L474.672 -97.0199L486.277 -85.8739L473.622 -75.029L462.017 -86.175ZM474.672 -97.0199L487.327 -107.865L498.932 -96.7188L486.277 -85.8739L474.672 -97.0199ZM283.796 87.6445L296.451 76.7996L308.056 87.9456L295.4 98.7905L283.796 87.6445ZM296.451 76.7996L309.106 65.9547L320.711 77.1007L308.056 87.9456L296.451 76.7996ZM309.106 65.9547L321.761 55.1098L333.366 66.2558L320.711 77.1007L309.106 65.9547ZM321.761 55.1098L334.416 44.2649L346.021 55.4109L333.366 66.2558L321.761 55.1098ZM334.416 44.2649L347.071 33.42L358.676 44.566L346.021 55.4109L334.416 44.2649ZM359.726 22.5751L372.381 11.7302L383.986 22.8762L371.331 33.7211L359.726 22.5751ZM372.381 11.7302L385.036 0.885305L396.641 12.0313L383.986 22.8762L372.381 11.7302ZM385.036 0.885305L397.691 -9.9596L409.296 1.18637L396.641 12.0313L385.036 0.885305ZM397.691 -9.9596L410.346 -20.8045L421.951 -9.65853L409.296 1.18637L397.691 -9.9596ZM423.002 -31.6494L435.657 -42.4943L447.261 -31.3483L434.606 -20.5034L423.002 -31.6494ZM448.312 -53.3392L460.967 -64.1841L472.571 -53.0381L459.916 -42.1932L448.312 -53.3392ZM460.967 -64.1841L473.622 -75.029L485.226 -63.883L472.571 -53.0381L460.967 -64.1841ZM473.622 -75.029L486.277 -85.8739L497.881 -74.7279L485.226 -63.883L473.622 -75.029ZM498.932 -96.7188L511.587 -107.564L523.191 -96.4177L510.536 -85.5728L498.932 -96.7188ZM524.242 -118.409L536.897 -129.253L548.501 -118.108L535.846 -107.263L524.242 -118.409ZM549.552 -140.098L562.207 -150.943L573.811 -139.797L561.156 -128.952L549.552 -140.098ZM574.862 -161.788L587.517 -172.633L599.122 -161.487L586.466 -150.642L574.862 -161.788ZM308.056 87.9456L320.711 77.1007L332.315 88.2466L319.66 99.0915L308.056 87.9456ZM320.711 77.1007L333.366 66.2558L344.97 77.4017L332.315 88.2466L320.711 77.1007ZM346.021 55.4109L358.676 44.566L370.28 55.7119L357.625 66.5568L346.021 55.4109ZM358.676 44.566L371.331 33.7211L382.935 44.867L370.28 55.7119L358.676 44.566ZM421.951 -9.65853L434.606 -20.5034L446.21 -9.35746L433.555 1.48744L421.951 -9.65853ZM447.261 -31.3483L459.916 -42.1932L471.52 -31.0473L458.865 -20.2024L447.261 -31.3483ZM497.881 -74.7279L510.536 -85.5728L522.141 -74.4269L509.486 -63.582L497.881 -74.7279ZM535.846 -107.263L548.501 -118.108L560.106 -106.962L547.451 -96.1167L535.846 -107.263ZM586.466 -150.642L599.122 -161.487L610.726 -150.341L598.071 -139.496L586.466 -150.642ZM307.005 109.936L319.66 99.0915L331.264 110.238L318.609 121.082L307.005 109.936ZM319.66 99.0915L332.315 88.2466L343.919 99.3926L331.264 110.238L319.66 99.0915ZM357.625 66.5568L370.28 55.7119L381.885 66.8579L369.23 77.7028L357.625 66.5568ZM370.28 55.7119L382.935 44.867L394.54 56.013L381.885 66.8579L370.28 55.7119ZM382.935 44.867L395.59 34.0221L407.195 45.1681L394.54 56.013L382.935 44.867ZM395.59 34.0221L408.245 23.1772L419.85 34.3232L407.195 45.1681L395.59 34.0221ZM433.555 1.48744L446.21 -9.35746L457.815 1.78851L445.16 12.6334L433.555 1.48744ZM484.176 -41.8922L496.831 -52.7371L508.435 -41.5911L495.78 -30.7462L484.176 -41.8922ZM496.831 -52.7371L509.486 -63.582L521.09 -52.436L508.435 -41.5911L496.831 -52.7371ZM534.796 -85.2718L547.451 -96.1167L559.055 -84.9707L546.4 -74.1258L534.796 -85.2718ZM572.761 -117.806L585.416 -128.651L597.02 -117.505L584.365 -106.66L572.761 -117.806ZM585.416 -128.651L598.071 -139.496L609.675 -128.35L597.02 -117.505L585.416 -128.651ZM598.071 -139.496L610.726 -150.341L622.33 -139.195L609.675 -128.35L598.071 -139.496ZM610.726 -150.341L623.381 -161.186L634.985 -150.04L622.33 -139.195L610.726 -150.341ZM318.609 121.082L331.264 110.238L342.869 121.383L330.214 132.228L318.609 121.082ZM331.264 110.238L343.919 99.3926L355.524 110.539L342.869 121.383L331.264 110.238ZM369.23 77.7028L381.885 66.8579L393.489 78.0039L380.834 88.8488L369.23 77.7028ZM381.885 66.8579L394.54 56.013L406.144 67.159L393.489 78.0039L381.885 66.8579ZM407.195 45.1681L419.85 34.3232L431.454 45.4692L418.799 56.3141L407.195 45.1681ZM419.85 34.3232L432.505 23.4783L444.109 34.6243L431.454 45.4692L419.85 34.3232ZM470.47 -9.05639L483.125 -19.9013L494.729 -8.75532L482.074 2.08958L470.47 -9.05639ZM521.09 -52.436L533.745 -63.2809L545.35 -52.1349L532.694 -41.29L521.09 -52.436ZM533.745 -63.2809L546.4 -74.1258L558.005 -62.9798L545.35 -52.1349L533.745 -63.2809ZM546.4 -74.1258L559.055 -84.9707L570.66 -73.8247L558.005 -62.9798L546.4 -74.1258ZM559.055 -84.9707L571.71 -95.8156L583.315 -84.6696L570.66 -73.8247L559.055 -84.9707ZM609.675 -128.35L622.33 -139.195L633.935 -128.049L621.28 -117.204L609.675 -128.35ZM622.33 -139.195L634.985 -150.04L646.59 -138.894L633.935 -128.049L622.33 -139.195ZM355.524 110.539L368.179 99.6937L379.783 110.84L367.128 121.685L355.524 110.539ZM393.489 78.0039L406.144 67.159L417.748 78.305L405.093 89.1499L393.489 78.0039ZM406.144 67.159L418.799 56.3141L430.404 67.4601L417.748 78.305L406.144 67.159ZM444.109 34.6243L456.764 23.7794L468.369 34.9254L455.714 45.7703L444.109 34.6243ZM456.764 23.7794L469.419 12.9345L481.024 24.0805L468.369 34.9254L456.764 23.7794ZM482.074 2.08958L494.729 -8.75532L506.334 2.39065L493.679 13.2356L482.074 2.08958ZM494.729 -8.75532L507.384 -19.6002L518.989 -8.45425L506.334 2.39065L494.729 -8.75532ZM507.384 -19.6002L520.039 -30.4451L531.644 -19.2991L518.989 -8.45425L507.384 -19.6002ZM520.039 -30.4451L532.694 -41.29L544.299 -30.144L531.644 -19.2991L520.039 -30.4451ZM532.694 -41.29L545.35 -52.1349L556.954 -40.9889L544.299 -30.144L532.694 -41.29ZM545.35 -52.1349L558.005 -62.9798L569.609 -51.8338L556.954 -40.9889L545.35 -52.1349ZM558.005 -62.9798L570.66 -73.8247L582.264 -62.6787L569.609 -51.8338L558.005 -62.9798ZM583.315 -84.6696L595.97 -95.5145L607.574 -84.3685L594.919 -73.5236L583.315 -84.6696ZM595.97 -95.5145L608.625 -106.359L620.229 -95.2134L607.574 -84.3685L595.97 -95.5145ZM608.625 -106.359L621.28 -117.204L632.884 -106.058L620.229 -95.2134L608.625 -106.359ZM633.935 -128.049L646.59 -138.894L658.194 -127.748L645.539 -116.903L633.935 -128.049ZM341.818 143.374L354.473 132.529L366.078 143.675L353.423 154.52L341.818 143.374ZM354.473 132.529L367.128 121.685L378.733 132.831L366.078 143.675L354.473 132.529ZM367.128 121.685L379.783 110.84L391.388 121.986L378.733 132.831L367.128 121.685ZM379.783 110.84L392.438 99.9948L404.043 111.141L391.388 121.986L379.783 110.84ZM455.714 45.7703L468.369 34.9254L479.973 46.0713L467.318 56.9162L455.714 45.7703ZM544.299 -30.144L556.954 -40.9889L568.558 -29.843L555.903 -18.9981L544.299 -30.144ZM556.954 -40.9889L569.609 -51.8338L581.213 -40.6879L568.558 -29.843L556.954 -40.9889ZM582.264 -62.6787L594.919 -73.5236L606.524 -62.3777L593.868 -51.5328L582.264 -62.6787ZM353.423 154.52L366.078 143.675L377.682 154.821L365.027 165.666L353.423 154.52ZM429.353 89.4509L442.008 78.606L453.612 89.752L440.957 100.597L429.353 89.4509ZM479.973 46.0713L492.628 35.2264L504.233 46.3724L491.578 57.2173L479.973 46.0713ZM492.628 35.2264L505.283 24.3815L516.888 35.5275L504.233 46.3724L492.628 35.2264ZM505.283 24.3815L517.938 13.5366L529.543 24.6826L516.888 35.5275L505.283 24.3815ZM543.248 -8.15318L555.903 -18.9981L567.508 -7.85211L554.853 2.99279L543.248 -8.15318ZM581.213 -40.6879L593.868 -51.5328L605.473 -40.3868L592.818 -29.5419L581.213 -40.6879ZM606.524 -62.3777L619.179 -73.2226L630.783 -62.0766L618.128 -51.2317L606.524 -62.3777ZM619.179 -73.2226L631.834 -84.0675L643.438 -72.9215L630.783 -62.0766L619.179 -73.2226ZM644.489 -94.9124L657.144 -105.757L668.748 -94.6113L656.093 -83.7664L644.489 -94.9124ZM657.144 -105.757L669.799 -116.602L681.403 -105.456L668.748 -94.6113L657.144 -105.757ZM365.027 165.666L377.682 154.821L389.287 165.967L376.632 176.812L365.027 165.666ZM415.647 122.287L428.302 111.442L439.907 122.588L427.252 133.433L415.647 122.287ZM453.612 89.752L466.267 78.9071L477.872 90.0531L465.217 100.898L453.612 89.752ZM491.578 57.2173L504.233 46.3724L515.837 57.5184L503.182 68.3633L491.578 57.2173ZM504.233 46.3724L516.888 35.5275L528.492 46.6735L515.837 57.5184L504.233 46.3724ZM542.198 13.8377L554.853 2.99279L566.457 14.1388L553.802 24.9837L542.198 13.8377ZM554.853 2.99279L567.508 -7.85211L579.112 3.29386L566.457 14.1388L554.853 2.99279ZM567.508 -7.85211L580.163 -18.697L591.767 -7.55104L579.112 3.29386L567.508 -7.85211ZM580.163 -18.697L592.818 -29.5419L604.422 -18.3959L591.767 -7.55104L580.163 -18.697ZM605.473 -40.3868L618.128 -51.2317L629.732 -40.0857L617.077 -29.2408L605.473 -40.3868ZM656.093 -83.7664L668.748 -94.6113L680.353 -83.4653L667.698 -72.6204L656.093 -83.7664ZM376.632 176.812L389.287 165.967L400.891 177.113L388.236 187.958L376.632 176.812ZM401.942 155.122L414.597 144.278L426.201 155.424L413.546 166.268L401.942 155.122ZM414.597 144.278L427.252 133.433L438.856 144.579L426.201 155.424L414.597 144.278ZM439.907 122.588L452.562 111.743L464.166 122.889L451.511 133.734L439.907 122.588ZM452.562 111.743L465.217 100.898L476.821 112.044L464.166 122.889L452.562 111.743ZM477.872 90.0531L490.527 79.2082L502.131 90.3541L489.476 101.199L477.872 90.0531ZM515.837 57.5184L528.492 46.6735L540.096 57.8194L527.441 68.6643L515.837 57.5184ZM566.457 14.1388L579.112 3.29386L590.717 14.4398L578.062 25.2847L566.457 14.1388ZM579.112 3.29386L591.767 -7.55104L603.372 3.59493L590.717 14.4398L579.112 3.29386ZM591.767 -7.55104L604.422 -18.3959L616.027 -7.24997L603.372 3.59493L591.767 -7.55104ZM604.422 -18.3959L617.077 -29.2408L628.682 -18.0949L616.027 -7.24997L604.422 -18.3959ZM617.077 -29.2408L629.732 -40.0857L641.337 -28.9398L628.682 -18.0949L617.077 -29.2408ZM629.732 -40.0857L642.387 -50.9306L653.992 -39.7847L641.337 -28.9398L629.732 -40.0857ZM655.042 -61.7755L667.698 -72.6204L679.302 -61.4745L666.647 -50.6296L655.042 -61.7755ZM680.353 -83.4653L693.008 -94.3102L704.612 -83.1643L691.957 -72.3194L680.353 -83.4653ZM489.476 101.199L502.131 90.3541L513.736 101.5L501.081 112.345L489.476 101.199ZM514.786 79.5092L527.441 68.6643L539.046 79.8103L526.391 90.6552L514.786 79.5092ZM540.096 57.8194L552.752 46.9745L564.356 58.1205L551.701 68.9654L540.096 57.8194ZM552.752 46.9745L565.407 36.1296L577.011 47.2756L564.356 58.1205L552.752 46.9745ZM578.062 25.2847L590.717 14.4398L602.321 25.5858L589.666 36.4307L578.062 25.2847ZM590.717 14.4398L603.372 3.59493L614.976 14.7409L602.321 25.5858L590.717 14.4398ZM641.337 -28.9398L653.992 -39.7847L665.596 -28.6387L652.941 -17.7938L641.337 -28.9398ZM399.84 199.104L412.495 188.259L424.1 199.405L411.445 210.25L399.84 199.104ZM412.495 188.259L425.15 177.414L436.755 188.56L424.1 199.405L412.495 188.259ZM425.15 177.414L437.806 166.57L449.41 177.715L436.755 188.56L425.15 177.414ZM437.806 166.57L450.461 155.725L462.065 166.871L449.41 177.715L437.806 166.57ZM450.461 155.725L463.116 144.88L474.72 156.026L462.065 166.871L450.461 155.725ZM463.116 144.88L475.771 134.035L487.375 145.181L474.72 156.026L463.116 144.88ZM475.771 134.035L488.426 123.19L500.03 134.336L487.375 145.181L475.771 134.035ZM501.081 112.345L513.736 101.5L525.34 112.646L512.685 123.491L501.081 112.345ZM513.736 101.5L526.391 90.6552L537.995 101.801L525.34 112.646L513.736 101.5ZM564.356 58.1205L577.011 47.2756L588.615 58.4216L575.96 69.2665L564.356 58.1205ZM577.011 47.2756L589.666 36.4307L601.27 47.5767L588.615 58.4216L577.011 47.2756ZM602.321 25.5858L614.976 14.7409L626.581 25.8869L613.926 36.7318L602.321 25.5858ZM627.631 3.896L640.286 -6.9489L651.891 4.19707L639.236 15.042L627.631 3.896ZM652.941 -17.7938L665.596 -28.6387L677.201 -17.4927L664.546 -6.64783L652.941 -17.7938ZM665.596 -28.6387L678.251 -39.4836L689.856 -28.3376L677.201 -17.4927L665.596 -28.6387ZM678.251 -39.4836L690.906 -50.3285L702.511 -39.1825L689.856 -28.3376L678.251 -39.4836ZM690.906 -50.3285L703.561 -61.1734L715.166 -50.0274L702.511 -39.1825L690.906 -50.3285ZM703.561 -61.1734L716.216 -72.0183L727.821 -60.8723L715.166 -50.0274L703.561 -61.1734ZM411.445 210.25L424.1 199.405L435.704 210.551L423.049 221.396L411.445 210.25ZM487.375 145.181L500.03 134.336L511.635 145.482L498.98 156.327L487.375 145.181ZM537.995 101.801L550.65 90.9563L562.255 102.102L549.6 112.947L537.995 101.801ZM563.305 80.1114L575.96 69.2665L587.565 80.4124L574.91 91.2573L563.305 80.1114ZM575.96 69.2665L588.615 58.4216L600.22 69.5675L587.565 80.4124L575.96 69.2665ZM613.926 36.7318L626.581 25.8869L638.185 37.0328L625.53 47.8777L613.926 36.7318ZM664.546 -6.64783L677.201 -17.4927L688.805 -6.34676L676.15 4.49814L664.546 -6.64783ZM702.511 -39.1825L715.166 -50.0274L726.77 -38.8815L714.115 -28.0366L702.511 -39.1825ZM715.166 -50.0274L727.821 -60.8723L739.425 -49.7264L726.77 -38.8815L715.166 -50.0274ZM423.049 221.396L435.704 210.551L447.309 221.697L434.654 232.542L423.049 221.396ZM448.359 199.706L461.014 188.861L472.619 200.007L459.964 210.852L448.359 199.706ZM461.014 188.861L473.669 178.017L485.274 189.163L472.619 200.007L461.014 188.861ZM473.669 178.017L486.324 167.172L497.929 178.318L485.274 189.163L473.669 178.017ZM498.98 156.327L511.635 145.482L523.239 156.628L510.584 167.473L498.98 156.327ZM524.29 134.637L536.945 123.792L548.549 134.938L535.894 145.783L524.29 134.637ZM574.91 91.2573L587.565 80.4124L599.169 91.5584L586.514 102.403L574.91 91.2573ZM600.22 69.5675L612.875 58.7226L624.479 69.8686L611.824 80.7135L600.22 69.5675ZM612.875 58.7226L625.53 47.8777L637.134 59.0237L624.479 69.8686L612.875 58.7226ZM625.53 47.8777L638.185 37.0328L649.789 48.1788L637.134 59.0237L625.53 47.8777ZM638.185 37.0328L650.84 26.1879L662.444 37.3339L649.789 48.1788L638.185 37.0328ZM650.84 26.1879L663.495 15.343L675.1 26.489L662.444 37.3339L650.84 26.1879ZM663.495 15.343L676.15 4.49814L687.755 15.6441L675.1 26.489L663.495 15.343ZM676.15 4.49814L688.805 -6.34676L700.41 4.79921L687.755 15.6441L676.15 4.49814ZM688.805 -6.34676L701.46 -17.1917L713.065 -6.04569L700.41 4.79921L688.805 -6.34676ZM701.46 -17.1917L714.115 -28.0366L725.72 -16.8906L713.065 -6.04569L701.46 -17.1917ZM714.115 -28.0366L726.77 -38.8815L738.375 -27.7355L725.72 -16.8906L714.115 -28.0366ZM726.77 -38.8815L739.425 -49.7264L751.03 -38.5804L738.375 -27.7355L726.77 -38.8815ZM434.654 232.542L447.309 221.697L458.913 232.843L446.258 243.688L434.654 232.542ZM459.964 210.852L472.619 200.007L484.223 211.153L471.568 221.998L459.964 210.852ZM472.619 200.007L485.274 189.163L496.878 200.308L484.223 211.153L472.619 200.007ZM485.274 189.163L497.929 178.318L509.533 189.464L496.878 200.308L485.274 189.163ZM510.584 167.473L523.239 156.628L534.843 167.774L522.188 178.619L510.584 167.473ZM535.894 145.783L548.549 134.938L560.154 146.084L547.498 156.929L535.894 145.783ZM548.549 134.938L561.204 124.093L572.809 135.239L560.154 146.084L548.549 134.938ZM561.204 124.093L573.859 113.248L585.464 124.394L572.809 135.239L561.204 124.093ZM624.479 69.8686L637.134 59.0237L648.739 70.1697L636.084 81.0146L624.479 69.8686ZM649.789 48.1788L662.444 37.3339L674.049 48.4799L661.394 59.3248L649.789 48.1788ZM662.444 37.3339L675.1 26.489L686.704 37.635L674.049 48.4799L662.444 37.3339ZM675.1 26.489L687.755 15.6441L699.359 26.7901L686.704 37.635L675.1 26.489ZM687.755 15.6441L700.41 4.79921L712.014 15.9452L699.359 26.7901L687.755 15.6441ZM725.72 -16.8906L738.375 -27.7355L749.979 -16.5895L737.324 -5.74462L725.72 -16.8906ZM738.375 -27.7355L751.03 -38.5804L762.634 -27.4344L749.979 -16.5895L738.375 -27.7355ZM446.258 243.688L458.913 232.843L470.518 243.989L457.863 254.834L446.258 243.688ZM471.568 221.998L484.223 211.153L495.828 222.299L483.173 233.144L471.568 221.998ZM484.223 211.153L496.878 200.308L508.483 211.454L495.828 222.299L484.223 211.153ZM496.878 200.308L509.533 189.464L521.138 200.61L508.483 211.454L496.878 200.308ZM522.188 178.619L534.843 167.774L546.448 178.92L533.793 189.765L522.188 178.619ZM547.498 156.929L560.154 146.084L571.758 157.23L559.103 168.075L547.498 156.929ZM572.809 135.239L585.464 124.394L597.068 135.54L584.413 146.385L572.809 135.239ZM585.464 124.394L598.119 113.549L609.723 124.695L597.068 135.54L585.464 124.394ZM598.119 113.549L610.774 102.704L622.378 113.85L609.723 124.695L598.119 113.549ZM648.739 70.1697L661.394 59.3248L672.998 70.4708L660.343 81.3157L648.739 70.1697ZM661.394 59.3248L674.049 48.4799L685.653 59.6259L672.998 70.4708L661.394 59.3248ZM686.704 37.635L699.359 26.7901L710.963 37.9361L698.308 48.781L686.704 37.635ZM712.014 15.9452L724.669 5.10028L736.274 16.2463L723.618 27.0912L712.014 15.9452ZM749.979 -16.5895L762.634 -27.4344L774.239 -16.2884L761.584 -5.44355L749.979 -16.5895ZM457.863 254.834L470.518 243.989L482.122 255.135L469.467 265.98L457.863 254.834ZM533.793 189.765L546.448 178.92L558.052 190.066L545.397 200.911L533.793 189.765ZM559.103 168.075L571.758 157.23L583.362 168.376L570.707 179.221L559.103 168.075ZM597.068 135.54L609.723 124.695L621.328 135.841L608.672 146.686L597.068 135.54ZM635.033 103.005L647.688 92.1606L659.293 103.307L646.638 114.151L635.033 103.005ZM660.343 81.3157L672.998 70.4708L684.603 81.6167L671.948 92.4616L660.343 81.3157ZM672.998 70.4708L685.653 59.6259L697.258 70.7718L684.603 81.6167L672.998 70.4708ZM685.653 59.6259L698.308 48.781L709.913 59.9269L697.258 70.7718L685.653 59.6259ZM698.308 48.781L710.963 37.9361L722.568 49.082L709.913 59.9269L698.308 48.781ZM710.963 37.9361L723.618 27.0912L735.223 38.2371L722.568 49.082L710.963 37.9361ZM761.584 -5.44355L774.239 -16.2884L785.843 -5.14248L773.188 5.70242L761.584 -5.44355ZM469.467 265.98L482.122 255.135L493.727 266.281L481.071 277.126L469.467 265.98ZM482.122 255.135L494.777 244.29L506.382 255.436L493.727 266.281L482.122 255.135ZM494.777 244.29L507.432 233.445L519.037 244.591L506.382 255.436L494.777 244.29ZM507.432 233.445L520.087 222.6L531.692 233.746L519.037 244.591L507.432 233.445ZM520.087 222.6L532.742 211.756L544.347 222.901L531.692 233.746L520.087 222.6ZM532.742 211.756L545.397 200.911L557.002 212.057L544.347 222.901L532.742 211.756ZM545.397 200.911L558.052 190.066L569.657 201.212L557.002 212.057L545.397 200.911ZM570.707 179.221L583.362 168.376L594.967 179.522L582.312 190.367L570.707 179.221ZM583.362 168.376L596.017 157.531L607.622 168.677L594.967 179.522L583.362 168.376ZM596.017 157.531L608.672 146.686L620.277 157.832L607.622 168.677L596.017 157.531ZM608.672 146.686L621.328 135.841L632.932 146.987L620.277 157.832L608.672 146.686ZM659.293 103.307L671.948 92.4616L683.552 103.608L670.897 114.452L659.293 103.307ZM747.878 27.3922L760.533 16.5473L772.137 27.6933L759.482 38.5382L747.878 27.3922ZM760.533 16.5473L773.188 5.70242L784.792 16.8484L772.137 27.6933L760.533 16.5473ZM773.188 5.70242L785.843 -5.14248L797.448 6.00349L784.792 16.8484L773.188 5.70242Z" fill="#FFADAD" fill-opacity="0.15"/>
<path d="M-470 753.123L-457.345 742.278L-445.741 753.424L-458.396 764.269L-470 753.123ZM-457.345 742.278L-444.69 731.433L-433.085 742.579L-445.741 753.424L-457.345 742.278ZM-444.69 731.433L-432.035 720.588L-420.43 731.734L-433.085 742.579L-444.69 731.433ZM-432.035 720.588L-419.38 709.743L-407.775 720.889L-420.43 731.734L-432.035 720.588ZM-419.38 709.743L-406.725 698.898L-395.12 710.044L-407.775 720.889L-419.38 709.743ZM-406.725 698.898L-394.07 688.053L-382.465 699.199L-395.12 710.044L-406.725 698.898ZM-394.07 688.053L-381.415 677.208L-369.81 688.354L-382.465 699.199L-394.07 688.053ZM-343.45 644.674L-330.795 633.829L-319.19 644.975L-331.845 655.82L-343.45 644.674ZM-318.139 622.984L-305.484 612.139L-293.88 623.285L-306.535 634.13L-318.139 622.984ZM-292.829 601.294L-280.174 590.449L-268.57 601.595L-281.225 612.44L-292.829 601.294ZM-267.519 579.604L-254.864 568.759L-243.26 579.905L-255.915 590.75L-267.519 579.604ZM-242.209 557.914L-229.554 547.069L-217.95 558.215L-230.605 569.06L-242.209 557.914ZM-229.554 547.069L-216.899 536.225L-205.295 547.371L-217.95 558.215L-229.554 547.069ZM-216.899 536.225L-204.244 525.38L-192.64 536.526L-205.295 547.371L-216.899 536.225ZM-204.244 525.38L-191.589 514.535L-179.985 525.681L-192.64 536.526L-204.244 525.38ZM-191.589 514.535L-178.934 503.69L-167.33 514.836L-179.985 525.681L-191.589 514.535ZM-178.934 503.69L-166.279 492.845L-154.675 503.991L-167.33 514.836L-178.934 503.69ZM-166.279 492.845L-153.624 482L-142.019 493.146L-154.675 503.991L-166.279 492.845ZM-458.396 764.269L-445.741 753.424L-434.136 764.57L-446.791 775.414L-458.396 764.269ZM-382.465 699.199L-369.81 688.354L-358.206 699.5L-370.861 710.345L-382.465 699.199ZM-357.155 677.509L-344.5 666.664L-332.896 677.81L-345.551 688.655L-357.155 677.509ZM-331.845 655.82L-319.19 644.975L-307.586 656.121L-320.241 666.965L-331.845 655.82ZM-293.88 623.285L-281.225 612.44L-269.621 623.586L-282.276 634.431L-293.88 623.285ZM-281.225 612.44L-268.57 601.595L-256.965 612.741L-269.621 623.586L-281.225 612.44ZM-268.57 601.595L-255.915 590.75L-244.31 601.896L-256.965 612.741L-268.57 601.595ZM-255.915 590.75L-243.26 579.905L-231.655 591.051L-244.31 601.896L-255.915 590.75ZM-230.605 569.06L-217.95 558.215L-206.345 569.361L-219 580.206L-230.605 569.06ZM-154.675 503.991L-142.019 493.146L-130.415 504.292L-143.07 515.137L-154.675 503.991ZM-446.791 775.414L-434.136 764.57L-422.532 775.716L-435.187 786.56L-446.791 775.414ZM-421.481 753.725L-408.826 742.88L-397.222 754.026L-409.877 764.871L-421.481 753.725ZM-408.826 742.88L-396.171 732.035L-384.567 743.181L-397.222 754.026L-408.826 742.88ZM-396.171 732.035L-383.516 721.19L-371.911 732.336L-384.567 743.181L-396.171 732.035ZM-370.861 710.345L-358.206 699.5L-346.601 710.646L-359.256 721.491L-370.861 710.345ZM-294.931 645.276L-282.276 634.431L-270.671 645.577L-283.326 656.422L-294.931 645.276ZM-219 580.206L-206.345 569.361L-194.741 580.507L-207.396 591.352L-219 580.206ZM-193.69 558.516L-181.035 547.672L-169.431 558.818L-182.086 569.662L-193.69 558.516ZM-181.035 547.672L-168.38 536.827L-156.776 547.973L-169.431 558.818L-181.035 547.672ZM-168.38 536.827L-155.725 525.982L-144.121 537.128L-156.776 547.973L-168.38 536.827ZM-143.07 515.137L-130.415 504.292L-118.811 515.438L-131.466 526.283L-143.07 515.137ZM-435.187 786.56L-422.532 775.716L-410.927 786.862L-423.582 797.706L-435.187 786.56ZM-409.877 764.871L-397.222 754.026L-385.617 765.172L-398.272 776.017L-409.877 764.871ZM-397.222 754.026L-384.567 743.181L-372.962 754.327L-385.617 765.172L-397.222 754.026ZM-384.567 743.181L-371.911 732.336L-360.307 743.482L-372.962 754.327L-384.567 743.181ZM-359.256 721.491L-346.601 710.646L-334.997 721.792L-347.652 732.637L-359.256 721.491ZM-333.946 699.801L-321.291 688.956L-309.687 700.102L-322.342 710.947L-333.946 699.801ZM-321.291 688.956L-308.636 678.111L-297.032 689.257L-309.687 700.102L-321.291 688.956ZM-308.636 678.111L-295.981 667.267L-284.377 678.413L-297.032 689.257L-308.636 678.111ZM-283.326 656.422L-270.671 645.577L-259.067 656.723L-271.722 667.568L-283.326 656.422ZM-270.671 645.577L-258.016 634.732L-246.412 645.878L-259.067 656.723L-270.671 645.577ZM-258.016 634.732L-245.361 623.887L-233.757 635.033L-246.412 645.878L-258.016 634.732ZM-245.361 623.887L-232.706 613.042L-221.102 624.188L-233.757 635.033L-245.361 623.887ZM-232.706 613.042L-220.051 602.197L-208.447 613.343L-221.102 624.188L-232.706 613.042ZM-207.396 591.352L-194.741 580.507L-183.136 591.653L-195.791 602.498L-207.396 591.352ZM-182.086 569.662L-169.431 558.818L-157.826 569.964L-170.481 580.808L-182.086 569.662ZM-169.431 558.818L-156.776 547.973L-145.171 559.119L-157.826 569.964L-169.431 558.818ZM-156.776 547.973L-144.121 537.128L-132.516 548.274L-145.171 559.119L-156.776 547.973ZM-131.466 526.283L-118.811 515.438L-107.206 526.584L-119.861 537.429L-131.466 526.283ZM-423.582 797.706L-410.927 786.862L-399.323 798.008L-411.978 808.852L-423.582 797.706ZM-398.272 776.017L-385.617 765.172L-374.013 776.318L-386.668 787.163L-398.272 776.017ZM-385.617 765.172L-372.962 754.327L-361.358 765.473L-374.013 776.318L-385.617 765.172ZM-372.962 754.327L-360.307 743.482L-348.703 754.628L-361.358 765.473L-372.962 754.327ZM-347.652 732.637L-334.997 721.792L-323.393 732.938L-336.048 743.783L-347.652 732.637ZM-309.687 700.102L-297.032 689.257L-285.427 700.403L-298.082 711.248L-309.687 700.102ZM-246.412 645.878L-233.757 635.033L-222.152 646.179L-234.807 657.024L-246.412 645.878ZM-221.102 624.188L-208.447 613.343L-196.842 624.489L-209.497 635.334L-221.102 624.188ZM-195.791 602.498L-183.136 591.653L-171.532 602.799L-184.187 613.644L-195.791 602.498ZM-170.481 580.808L-157.826 569.964L-146.222 581.11L-158.877 591.954L-170.481 580.808ZM-157.826 569.964L-145.171 559.119L-133.567 570.265L-146.222 581.11L-157.826 569.964ZM-145.171 559.119L-132.516 548.274L-120.912 559.42L-133.567 570.265L-145.171 559.119ZM-119.861 537.429L-107.206 526.584L-95.6018 537.73L-108.257 548.575L-119.861 537.429ZM-411.978 808.852L-399.323 798.008L-387.718 809.153L-400.373 819.998L-411.978 808.852ZM-336.048 743.783L-323.393 732.938L-311.788 744.084L-324.443 754.929L-336.048 743.783ZM-310.737 722.093L-298.082 711.248L-286.478 722.394L-299.133 733.239L-310.737 722.093ZM-298.082 711.248L-285.427 700.403L-273.823 711.549L-286.478 722.394L-298.082 711.248ZM-272.772 689.559L-260.117 678.714L-248.513 689.86L-261.168 700.704L-272.772 689.559ZM-260.117 678.714L-247.462 667.869L-235.858 679.015L-248.513 689.86L-260.117 678.714ZM-247.462 667.869L-234.807 657.024L-223.203 668.17L-235.858 679.015L-247.462 667.869ZM-222.152 646.179L-209.497 635.334L-197.893 646.48L-210.548 657.325L-222.152 646.179ZM-184.187 613.644L-171.532 602.799L-159.928 613.945L-172.583 624.79L-184.187 613.644ZM-108.257 548.575L-95.6018 537.73L-83.9973 548.876L-96.6524 559.721L-108.257 548.575ZM-400.373 819.998L-387.718 809.153L-376.114 820.299L-388.769 831.144L-400.373 819.998ZM-387.718 809.153L-375.063 798.309L-363.459 809.455L-376.114 820.299L-387.718 809.153ZM-375.063 798.309L-362.408 787.464L-350.804 798.61L-363.459 809.455L-375.063 798.309ZM-362.408 787.464L-349.753 776.619L-338.149 787.765L-350.804 798.61L-362.408 787.464ZM-349.753 776.619L-337.098 765.774L-325.494 776.92L-338.149 787.765L-349.753 776.619ZM-337.098 765.774L-324.443 754.929L-312.839 766.075L-325.494 776.92L-337.098 765.774ZM-324.443 754.929L-311.788 744.084L-300.184 755.23L-312.839 766.075L-324.443 754.929ZM-299.133 733.239L-286.478 722.394L-274.874 733.54L-287.529 744.385L-299.133 733.239ZM-273.823 711.549L-261.168 700.704L-249.563 711.85L-262.219 722.695L-273.823 711.549ZM-248.513 689.86L-235.858 679.015L-224.253 690.161L-236.908 701.006L-248.513 689.86ZM-223.203 668.17L-210.548 657.325L-198.943 668.471L-211.598 679.316L-223.203 668.17ZM-197.893 646.48L-185.238 635.635L-173.633 646.781L-186.288 657.626L-197.893 646.48ZM-172.583 624.79L-159.928 613.945L-148.323 625.091L-160.978 635.936L-172.583 624.79ZM-159.928 613.945L-147.273 603.1L-135.668 614.246L-148.323 625.091L-159.928 613.945ZM-147.273 603.1L-134.617 592.255L-123.013 603.401L-135.668 614.246L-147.273 603.1ZM-134.617 592.255L-121.962 581.411L-110.358 592.557L-123.013 603.401L-134.617 592.255ZM-121.962 581.411L-109.307 570.566L-97.703 581.712L-110.358 592.557L-121.962 581.411ZM-109.307 570.566L-96.6524 559.721L-85.0479 570.867L-97.703 581.712L-109.307 570.566ZM-96.6524 559.721L-83.9973 548.876L-72.3929 560.022L-85.0479 570.867L-96.6524 559.721ZM-274.874 733.54L-262.219 722.695L-250.614 733.841L-263.269 744.686L-274.874 733.54ZM-262.219 722.695L-249.563 711.85L-237.959 722.996L-250.614 733.841L-262.219 722.695ZM-249.563 711.85L-236.908 701.006L-225.304 712.152L-237.959 722.996L-249.563 711.85ZM-211.598 679.316L-198.943 668.471L-187.339 679.617L-199.994 690.462L-211.598 679.316ZM-198.943 668.471L-186.288 657.626L-174.684 668.772L-187.339 679.617L-198.943 668.471ZM-186.288 657.626L-173.633 646.781L-162.029 657.927L-174.684 668.772L-186.288 657.626ZM-377.165 842.29L-364.509 831.445L-352.905 842.591L-365.56 853.436L-377.165 842.29ZM-364.509 831.445L-351.854 820.601L-340.25 831.746L-352.905 842.591L-364.509 831.445ZM-351.854 820.601L-339.199 809.756L-327.595 820.902L-340.25 831.746L-351.854 820.601ZM-339.199 809.756L-326.544 798.911L-314.94 810.057L-327.595 820.902L-339.199 809.756ZM-326.544 798.911L-313.889 788.066L-302.285 799.212L-314.94 810.057L-326.544 798.911ZM-301.234 777.221L-288.579 766.376L-276.975 777.522L-289.63 788.367L-301.234 777.221ZM-288.579 766.376L-275.924 755.531L-264.32 766.677L-276.975 777.522L-288.579 766.376ZM-275.924 755.531L-263.269 744.686L-251.665 755.832L-264.32 766.677L-275.924 755.531ZM-263.269 744.686L-250.614 733.841L-239.01 744.987L-251.665 755.832L-263.269 744.686ZM-237.959 722.996L-225.304 712.152L-213.7 723.297L-226.355 734.142L-237.959 722.996ZM-212.649 701.307L-199.994 690.462L-188.389 701.608L-201.045 712.453L-212.649 701.307ZM-199.994 690.462L-187.339 679.617L-175.734 690.763L-188.389 701.608L-199.994 690.462ZM-187.339 679.617L-174.684 668.772L-163.079 679.918L-175.734 690.763L-187.339 679.617ZM-162.029 657.927L-149.374 647.082L-137.769 658.228L-150.424 669.073L-162.029 657.927ZM-136.719 636.237L-124.064 625.392L-112.459 636.538L-125.114 647.383L-136.719 636.237ZM-111.409 614.547L-98.7536 603.703L-87.1491 614.848L-99.8042 625.693L-111.409 614.547ZM-86.0985 592.858L-73.4435 582.013L-61.8391 593.159L-74.4941 604.004L-86.0985 592.858ZM-352.905 842.591L-340.25 831.746L-328.646 842.892L-341.301 853.737L-352.905 842.591ZM-340.25 831.746L-327.595 820.902L-315.991 832.048L-328.646 842.892L-340.25 831.746ZM-314.94 810.057L-302.285 799.212L-290.68 810.358L-303.335 821.203L-314.94 810.057ZM-302.285 799.212L-289.63 788.367L-278.025 799.513L-290.68 810.358L-302.285 799.212ZM-239.01 744.987L-226.355 734.142L-214.75 745.288L-227.405 756.133L-239.01 744.987ZM-213.7 723.297L-201.045 712.453L-189.44 723.599L-202.095 734.443L-213.7 723.297ZM-163.079 679.918L-150.424 669.073L-138.82 680.219L-151.475 691.064L-163.079 679.918ZM-125.114 647.383L-112.459 636.538L-100.855 647.684L-113.51 658.529L-125.114 647.383ZM-74.4941 604.004L-61.8391 593.159L-50.2346 604.305L-62.8897 615.15L-74.4941 604.004ZM-353.956 864.582L-341.301 853.737L-329.696 864.883L-342.351 875.728L-353.956 864.582ZM-341.301 853.737L-328.646 842.892L-317.041 854.038L-329.696 864.883L-341.301 853.737ZM-303.335 821.203L-290.68 810.358L-279.076 821.504L-291.731 832.349L-303.335 821.203ZM-290.68 810.358L-278.025 799.513L-266.421 810.659L-279.076 821.504L-290.68 810.358ZM-278.025 799.513L-265.37 788.668L-253.766 799.814L-266.421 810.659L-278.025 799.513ZM-265.37 788.668L-252.715 777.823L-241.111 788.969L-253.766 799.814L-265.37 788.668ZM-227.405 756.133L-214.75 745.288L-203.146 756.434L-215.801 767.279L-227.405 756.133ZM-176.785 712.754L-164.13 701.909L-152.526 713.055L-165.181 723.9L-176.785 712.754ZM-164.13 701.909L-151.475 691.064L-139.871 702.21L-152.526 713.055L-164.13 701.909ZM-126.165 669.374L-113.51 658.529L-101.905 669.675L-114.56 680.52L-126.165 669.374ZM-88.1997 636.839L-75.5447 625.994L-63.9403 637.14L-76.5953 647.985L-88.1997 636.839ZM-75.5447 625.994L-62.8897 615.15L-51.2852 626.296L-63.9403 637.14L-75.5447 625.994ZM-62.8897 615.15L-50.2346 604.305L-38.6302 615.451L-51.2852 626.296L-62.8897 615.15ZM-50.2346 604.305L-37.5796 593.46L-25.9751 604.606L-38.6302 615.451L-50.2346 604.305ZM-342.351 875.728L-329.696 864.883L-318.092 876.029L-330.747 886.874L-342.351 875.728ZM-329.696 864.883L-317.041 854.038L-305.437 865.184L-318.092 876.029L-329.696 864.883ZM-291.731 832.349L-279.076 821.504L-267.472 832.65L-280.127 843.495L-291.731 832.349ZM-279.076 821.504L-266.421 810.659L-254.817 821.805L-267.472 832.65L-279.076 821.504ZM-253.766 799.814L-241.111 788.969L-229.506 800.115L-242.161 810.96L-253.766 799.814ZM-241.111 788.969L-228.456 778.124L-216.851 789.27L-229.506 800.115L-241.111 788.969ZM-190.491 745.589L-177.836 734.745L-166.231 745.89L-178.886 756.735L-190.491 745.589ZM-139.871 702.21L-127.215 691.365L-115.611 702.511L-128.266 713.356L-139.871 702.21ZM-127.215 691.365L-114.56 680.52L-102.956 691.666L-115.611 702.511L-127.215 691.365ZM-114.56 680.52L-101.905 669.675L-90.301 680.821L-102.956 691.666L-114.56 680.52ZM-101.905 669.675L-89.2504 658.83L-77.6459 669.976L-90.301 680.821L-101.905 669.675ZM-51.2852 626.296L-38.6302 615.451L-27.0258 626.597L-39.6808 637.441L-51.2852 626.296ZM-38.6302 615.451L-25.9751 604.606L-14.3707 615.752L-27.0258 626.597L-38.6302 615.451ZM-305.437 865.184L-292.782 854.339L-281.177 865.485L-293.832 876.33L-305.437 865.184ZM-267.472 832.65L-254.817 821.805L-243.212 832.951L-255.867 843.796L-267.472 832.65ZM-254.817 821.805L-242.161 810.96L-230.557 822.106L-243.212 832.951L-254.817 821.805ZM-216.851 789.27L-204.196 778.425L-192.592 789.571L-205.247 800.416L-216.851 789.27ZM-204.196 778.425L-191.541 767.58L-179.937 778.726L-192.592 789.571L-204.196 778.425ZM-178.886 756.735L-166.231 745.89L-154.627 757.036L-167.282 767.881L-178.886 756.735ZM-166.231 745.89L-153.576 735.046L-141.972 746.192L-154.627 757.036L-166.231 745.89ZM-153.576 735.046L-140.921 724.201L-129.317 735.347L-141.972 746.192L-153.576 735.046ZM-140.921 724.201L-128.266 713.356L-116.662 724.502L-129.317 735.347L-140.921 724.201ZM-128.266 713.356L-115.611 702.511L-104.007 713.657L-116.662 724.502L-128.266 713.356ZM-115.611 702.511L-102.956 691.666L-91.3516 702.812L-104.007 713.657L-115.611 702.511ZM-102.956 691.666L-90.301 680.821L-78.6965 691.967L-91.3516 702.812L-102.956 691.666ZM-77.6459 669.976L-64.9909 659.131L-53.3864 670.277L-66.0415 681.122L-77.6459 669.976ZM-64.9909 659.131L-52.3358 648.286L-40.7314 659.432L-53.3864 670.277L-64.9909 659.131ZM-52.3358 648.286L-39.6808 637.441L-28.0764 648.587L-40.7314 659.432L-52.3358 648.286ZM-27.0258 626.597L-14.3707 615.752L-2.76627 626.898L-15.4213 637.743L-27.0258 626.597ZM-319.142 898.02L-306.487 887.175L-294.883 898.321L-307.538 909.166L-319.142 898.02ZM-306.487 887.175L-293.832 876.33L-282.228 887.476L-294.883 898.321L-306.487 887.175ZM-293.832 876.33L-281.177 865.485L-269.573 876.631L-282.228 887.476L-293.832 876.33ZM-281.177 865.485L-268.522 854.641L-256.918 865.787L-269.573 876.631L-281.177 865.485ZM-205.247 800.416L-192.592 789.571L-180.987 800.717L-193.643 811.562L-205.247 800.416ZM-116.662 724.502L-104.007 713.657L-92.4022 724.803L-105.057 735.648L-116.662 724.502ZM-104.007 713.657L-91.3516 702.812L-79.7471 713.958L-92.4022 724.803L-104.007 713.657ZM-78.6965 691.967L-66.0415 681.122L-54.437 692.268L-67.0921 703.113L-78.6965 691.967ZM-307.538 909.166L-294.883 898.321L-283.278 909.467L-295.933 920.312L-307.538 909.166ZM-231.608 844.097L-218.953 833.252L-207.348 844.398L-220.003 855.243L-231.608 844.097ZM-180.987 800.717L-168.332 789.872L-156.728 801.018L-169.383 811.863L-180.987 800.717ZM-168.332 789.872L-155.677 779.027L-144.073 790.173L-156.728 801.018L-168.332 789.872ZM-155.677 779.027L-143.022 768.182L-131.418 779.328L-144.073 790.173L-155.677 779.027ZM-117.712 746.493L-105.057 735.648L-93.4528 746.794L-106.108 757.639L-117.712 746.493ZM-79.7471 713.958L-67.0921 703.113L-55.4877 714.259L-68.1427 725.104L-79.7471 713.958ZM-54.437 692.268L-41.782 681.423L-30.1776 692.569L-42.8326 703.414L-54.437 692.268ZM-41.782 681.423L-29.127 670.578L-17.5225 681.724L-30.1776 692.569L-41.782 681.423ZM-16.4719 659.733L-3.81688 648.889L7.78756 660.035L-4.86749 670.879L-16.4719 659.733ZM-3.81688 648.889L8.83816 638.044L20.4426 649.19L7.78756 660.035L-3.81688 648.889ZM-295.933 920.312L-283.278 909.467L-271.674 920.613L-284.329 931.458L-295.933 920.312ZM-245.313 876.933L-232.658 866.088L-221.054 877.234L-233.709 888.078L-245.313 876.933ZM-207.348 844.398L-194.693 833.553L-183.089 844.699L-195.744 855.544L-207.348 844.398ZM-169.383 811.863L-156.728 801.018L-145.124 812.164L-157.779 823.009L-169.383 811.863ZM-156.728 801.018L-144.073 790.173L-132.469 801.319L-145.124 812.164L-156.728 801.018ZM-118.763 768.484L-106.108 757.639L-94.5034 768.785L-107.158 779.629L-118.763 768.484ZM-106.108 757.639L-93.4528 746.794L-81.8483 757.94L-94.5034 768.785L-106.108 757.639ZM-93.4528 746.794L-80.7977 735.949L-69.1933 747.095L-81.8483 757.94L-93.4528 746.794ZM-80.7977 735.949L-68.1427 725.104L-56.5383 736.25L-69.1933 747.095L-80.7977 735.949ZM-55.4877 714.259L-42.8326 703.414L-31.2282 714.56L-43.8832 725.405L-55.4877 714.259ZM-4.86749 670.879L7.78756 660.035L19.392 671.18L6.73695 682.025L-4.86749 670.879ZM-284.329 931.458L-271.674 920.613L-260.07 931.759L-272.725 942.604L-284.329 931.458ZM-259.019 909.768L-246.364 898.923L-234.759 910.069L-247.415 920.914L-259.019 909.768ZM-246.364 898.923L-233.709 888.078L-222.104 899.224L-234.759 910.069L-246.364 898.923ZM-221.054 877.234L-208.399 866.389L-196.794 877.535L-209.449 888.38L-221.054 877.234ZM-208.399 866.389L-195.744 855.544L-184.139 866.69L-196.794 877.535L-208.399 866.389ZM-183.089 844.699L-170.434 833.854L-158.829 845L-171.484 855.845L-183.089 844.699ZM-145.124 812.164L-132.469 801.319L-120.864 812.465L-133.519 823.31L-145.124 812.164ZM-94.5034 768.785L-81.8483 757.94L-70.2439 769.086L-82.899 779.931L-94.5034 768.785ZM-81.8483 757.94L-69.1933 747.095L-57.5889 758.241L-70.2439 769.086L-81.8483 757.94ZM-69.1933 747.095L-56.5383 736.25L-44.9338 747.396L-57.5889 758.241L-69.1933 747.095ZM-56.5383 736.25L-43.8832 725.405L-32.2788 736.551L-44.9338 747.396L-56.5383 736.25ZM-43.8832 725.405L-31.2282 714.56L-19.6237 725.706L-32.2788 736.551L-43.8832 725.405ZM-31.2282 714.56L-18.5731 703.715L-6.9687 714.861L-19.6237 725.706L-31.2282 714.56ZM-5.91809 692.87L6.73695 682.025L18.3414 693.171L5.68634 704.016L-5.91809 692.87ZM19.392 671.18L32.047 660.336L43.6515 671.482L30.9964 682.326L19.392 671.18ZM-171.484 855.845L-158.829 845L-147.225 856.146L-159.88 866.991L-171.484 855.845ZM-146.174 834.155L-133.519 823.31L-121.915 834.456L-134.57 845.301L-146.174 834.155ZM-120.864 812.465L-108.209 801.62L-96.6046 812.766L-109.26 823.611L-120.864 812.465ZM-108.209 801.62L-95.554 790.775L-83.9496 801.921L-96.6046 812.766L-108.209 801.62ZM-82.899 779.931L-70.2439 769.086L-58.6395 780.232L-71.2945 791.077L-82.899 779.931ZM-70.2439 769.086L-57.5889 758.241L-45.9844 769.387L-58.6395 780.232L-70.2439 769.086ZM-19.6237 725.706L-6.9687 714.861L4.63573 726.007L-8.01931 736.852L-19.6237 725.706ZM-261.12 953.75L-248.465 942.905L-236.861 954.051L-249.516 964.896L-261.12 953.75ZM-248.465 942.905L-235.81 932.06L-224.206 943.206L-236.861 954.051L-248.465 942.905ZM-235.81 932.06L-223.155 921.215L-211.551 932.361L-224.206 943.206L-235.81 932.06ZM-223.155 921.215L-210.5 910.37L-198.896 921.516L-211.551 932.361L-223.155 921.215ZM-210.5 910.37L-197.845 899.526L-186.241 910.671L-198.896 921.516L-210.5 910.37ZM-197.845 899.526L-185.19 888.681L-173.585 899.827L-186.241 910.671L-197.845 899.526ZM-185.19 888.681L-172.535 877.836L-160.93 888.982L-173.585 899.827L-185.19 888.681ZM-159.88 866.991L-147.225 856.146L-135.62 867.292L-148.275 878.137L-159.88 866.991ZM-147.225 856.146L-134.57 845.301L-122.965 856.447L-135.62 867.292L-147.225 856.146ZM-96.6046 812.766L-83.9496 801.921L-72.3451 813.067L-85.0002 823.912L-96.6046 812.766ZM-83.9496 801.921L-71.2945 791.077L-59.6901 802.222L-72.3451 813.067L-83.9496 801.921ZM-58.6395 780.232L-45.9844 769.387L-34.38 780.533L-47.035 791.378L-58.6395 780.232ZM-33.3294 758.542L-20.6744 747.697L-9.06992 758.843L-21.725 769.688L-33.3294 758.542ZM-8.01931 736.852L4.63573 726.007L16.2402 737.153L3.58513 747.998L-8.01931 736.852ZM4.63573 726.007L17.2908 715.162L28.8952 726.308L16.2402 737.153L4.63573 726.007ZM17.2908 715.162L29.9458 704.317L41.5503 715.463L28.8952 726.308L17.2908 715.162ZM29.9458 704.317L42.6009 693.472L54.2053 704.618L41.5503 715.463L29.9458 704.317ZM42.6009 693.472L55.2559 682.628L66.8603 693.773L54.2053 704.618L42.6009 693.472ZM-249.516 964.896L-236.861 954.051L-225.256 965.197L-237.911 976.042L-249.516 964.896ZM-173.585 899.827L-160.93 888.982L-149.326 900.128L-161.981 910.973L-173.585 899.827ZM-122.965 856.447L-110.31 845.602L-98.7058 856.748L-111.361 867.593L-122.965 856.447ZM-97.6552 834.757L-85.0002 823.912L-73.3957 835.058L-86.0508 845.903L-97.6552 834.757ZM-85.0002 823.912L-72.3451 813.067L-60.7407 824.213L-73.3957 835.058L-85.0002 823.912ZM-47.035 791.378L-34.38 780.533L-22.7756 791.679L-35.4306 802.524L-47.035 791.378ZM3.58513 747.998L16.2402 737.153L27.8446 748.299L15.1896 759.144L3.58513 747.998ZM41.5503 715.463L54.2053 704.618L65.8097 715.764L53.1547 726.609L41.5503 715.463ZM54.2053 704.618L66.8603 693.773L78.4648 704.919L65.8097 715.764L54.2053 704.618ZM-237.911 976.042L-225.256 965.197L-213.652 976.343L-226.307 987.188L-237.911 976.042ZM-212.601 954.352L-199.946 943.507L-188.342 954.653L-200.997 965.498L-212.601 954.352ZM-199.946 943.507L-187.291 932.662L-175.687 943.808L-188.342 954.653L-199.946 943.507ZM-187.291 932.662L-174.636 921.817L-163.032 932.963L-175.687 943.808L-187.291 932.662ZM-161.981 910.973L-149.326 900.128L-137.722 911.274L-150.377 922.119L-161.981 910.973ZM-136.671 889.283L-124.016 878.438L-112.411 889.584L-125.067 900.429L-136.671 889.283ZM-86.0508 845.903L-73.3957 835.058L-61.7913 846.204L-74.4463 857.049L-86.0508 845.903ZM-60.7407 824.213L-48.0857 813.368L-36.4812 824.514L-49.1363 835.359L-60.7407 824.213ZM-48.0857 813.368L-35.4306 802.524L-23.8262 813.67L-36.4812 824.514L-48.0857 813.368ZM-35.4306 802.524L-22.7756 791.679L-11.1711 802.825L-23.8262 813.67L-35.4306 802.524ZM-22.7756 791.679L-10.1205 780.834L1.48391 791.98L-11.1711 802.825L-22.7756 791.679ZM-10.1205 780.834L2.53452 769.989L14.139 781.135L1.48391 791.98L-10.1205 780.834ZM2.53452 769.989L15.1896 759.144L26.794 770.29L14.139 781.135L2.53452 769.989ZM15.1896 759.144L27.8446 748.299L39.449 759.445L26.794 770.29L15.1896 759.144ZM27.8446 748.299L40.4996 737.454L52.1041 748.6L39.449 759.445L27.8446 748.299ZM40.4996 737.454L53.1547 726.609L64.7591 737.755L52.1041 748.6L40.4996 737.454ZM53.1547 726.609L65.8097 715.764L77.4142 726.91L64.7591 737.755L53.1547 726.609ZM65.8097 715.764L78.4648 704.919L90.0692 716.065L77.4142 726.91L65.8097 715.764ZM-226.307 987.188L-213.652 976.343L-202.047 987.489L-214.702 998.334L-226.307 987.188ZM-200.997 965.498L-188.342 954.653L-176.737 965.799L-189.392 976.644L-200.997 965.498ZM-188.342 954.653L-175.687 943.808L-164.082 954.954L-176.737 965.799L-188.342 954.653ZM-175.687 943.808L-163.032 932.963L-151.427 944.109L-164.082 954.954L-175.687 943.808ZM-150.377 922.119L-137.722 911.274L-126.117 922.42L-138.772 933.264L-150.377 922.119ZM-125.067 900.429L-112.411 889.584L-100.807 900.73L-113.462 911.575L-125.067 900.429ZM-112.411 889.584L-99.7564 878.739L-88.152 889.885L-100.807 900.73L-112.411 889.584ZM-99.7564 878.739L-87.1014 867.894L-75.4969 879.04L-88.152 889.885L-99.7564 878.739ZM-36.4812 824.514L-23.8262 813.67L-12.2217 824.815L-24.8768 835.66L-36.4812 824.514ZM-11.1711 802.825L1.48391 791.98L13.0883 803.126L0.433306 813.971L-11.1711 802.825ZM1.48391 791.98L14.139 781.135L25.7434 792.281L13.0883 803.126L1.48391 791.98ZM14.139 781.135L26.794 770.29L38.3984 781.436L25.7434 792.281L14.139 781.135ZM26.794 770.29L39.449 759.445L51.0535 770.591L38.3984 781.436L26.794 770.29ZM64.7591 737.755L77.4142 726.91L89.0186 738.056L76.3636 748.901L64.7591 737.755ZM77.4142 726.91L90.0692 716.065L101.674 727.211L89.0186 738.056L77.4142 726.91ZM-214.702 998.334L-202.047 987.489L-190.443 998.635L-203.098 1009.48L-214.702 998.334ZM-189.392 976.644L-176.737 965.799L-165.133 976.945L-177.788 987.79L-189.392 976.644ZM-176.737 965.799L-164.082 954.954L-152.478 966.1L-165.133 976.945L-176.737 965.799ZM-164.082 954.954L-151.427 944.109L-139.823 955.255L-152.478 966.1L-164.082 954.954ZM-138.772 933.264L-126.117 922.42L-114.513 933.566L-127.168 944.41L-138.772 933.264ZM-113.462 911.575L-100.807 900.73L-89.2026 911.876L-101.858 922.721L-113.462 911.575ZM-88.152 889.885L-75.4969 879.04L-63.8925 890.186L-76.5476 901.031L-88.152 889.885ZM-75.4969 879.04L-62.8419 868.195L-51.2375 879.341L-63.8925 890.186L-75.4969 879.04ZM-62.8419 868.195L-50.1869 857.35L-38.5824 868.496L-51.2375 879.341L-62.8419 868.195ZM-12.2217 824.815L0.433306 813.971L12.0377 825.117L-0.617301 835.961L-12.2217 824.815ZM0.433306 813.971L13.0883 803.126L24.6928 814.272L12.0377 825.117L0.433306 813.971ZM25.7434 792.281L38.3984 781.436L50.0029 792.582L37.3478 803.427L25.7434 792.281ZM51.0535 770.591L63.7085 759.746L75.313 770.892L62.6579 781.737L51.0535 770.591ZM89.0186 738.056L101.674 727.211L113.278 738.357L100.623 749.202L89.0186 738.056ZM-203.098 1009.48L-190.443 998.635L-178.839 1009.78L-191.494 1020.63L-203.098 1009.48ZM-127.168 944.41L-114.513 933.566L-102.908 944.712L-115.563 955.556L-127.168 944.41ZM-101.858 922.721L-89.2026 911.876L-77.5982 923.022L-90.2532 933.867L-101.858 922.721ZM-63.8925 890.186L-51.2375 879.341L-39.633 890.487L-52.2881 901.332L-63.8925 890.186ZM-25.9274 857.651L-13.2723 846.806L-1.66791 857.952L-14.323 868.797L-25.9274 857.651ZM-0.617301 835.961L12.0377 825.117L23.6422 836.263L10.9871 847.107L-0.617301 835.961ZM12.0377 825.117L24.6928 814.272L36.2972 825.418L23.6422 836.263L12.0377 825.117ZM24.6928 814.272L37.3478 803.427L48.9523 814.573L36.2972 825.418L24.6928 814.272ZM37.3478 803.427L50.0029 792.582L61.6073 803.728L48.9523 814.573L37.3478 803.427ZM50.0029 792.582L62.6579 781.737L74.2623 792.883L61.6073 803.728L50.0029 792.582ZM100.623 749.202L113.278 738.357L124.883 749.503L112.227 760.348L100.623 749.202ZM-191.494 1020.63L-178.839 1009.78L-167.234 1020.93L-179.889 1031.77L-191.494 1020.63ZM-178.839 1009.78L-166.183 998.936L-154.579 1010.08L-167.234 1020.93L-178.839 1009.78ZM-166.183 998.936L-153.528 988.091L-141.924 999.237L-154.579 1010.08L-166.183 998.936ZM-153.528 988.091L-140.873 977.246L-129.269 988.392L-141.924 999.237L-153.528 988.091ZM-140.873 977.246L-128.218 966.401L-116.614 977.547L-129.269 988.392L-140.873 977.246ZM-128.218 966.401L-115.563 955.556L-103.959 966.702L-116.614 977.547L-128.218 966.401ZM-115.563 955.556L-102.908 944.712L-91.3038 955.858L-103.959 966.702L-115.563 955.556ZM-90.2532 933.867L-77.5982 923.022L-65.9937 934.168L-78.6488 945.013L-90.2532 933.867ZM-77.5982 923.022L-64.9431 912.177L-53.3387 923.323L-65.9937 934.168L-77.5982 923.022ZM-64.9431 912.177L-52.2881 901.332L-40.6836 912.478L-53.3387 923.323L-64.9431 912.177ZM-52.2881 901.332L-39.633 890.487L-28.0286 901.633L-40.6836 912.478L-52.2881 901.332ZM-1.66791 857.952L10.9871 847.107L22.5916 858.253L9.93653 869.098L-1.66791 857.952ZM86.9174 782.038L99.5724 771.193L111.177 782.339L98.5218 793.184L86.9174 782.038ZM99.5724 771.193L112.227 760.348L123.832 771.494L111.177 782.339L99.5724 771.193ZM112.227 760.348L124.883 749.503L136.487 760.649L123.832 771.494L112.227 760.348Z" fill="#FFADAD" fill-opacity="0.15"/>
</g>
</svg>
