r<svg width="414" height="817" viewBox="0 0 414 817" fill="none" xmlns="http://www.w3.org/2000/svg">
<mask id="mask0_14_378" style="mask-type:alpha" maskUnits="userSpaceOnUse" x="0" y="0" width="414" height="817">
<path d="M0 0H414V777C414 799.091 396.091 817 374 817H40C17.9086 817 0 799.091 0 777V0Z" fill="#FF3E3E"/>
</mask>
<g mask="url(#mask0_14_378)">
<path d="M504.784 103.839C570.841 90.6686 604.945 188.451 544.647 218.134L6.85224 482.88C-11.3233 491.827 -33.1354 489.724 -50.4304 477.355L-222.674 354.177C-265.67 323.428 -254.756 255.276 -205.254 245.406L504.784 103.839Z" fill="#D9D9D9" fill-opacity="0.1"/>
<path d="M535.42 338.487L546.009 351.358L534.632 362.736L524.044 349.865L535.42 338.487ZM546.009 351.358L556.597 364.228L545.221 375.606L534.632 362.736L546.009 351.358ZM556.597 364.228L567.186 377.098L555.809 388.476L545.221 375.606L556.597 364.228ZM567.186 377.098L577.775 389.969L566.398 401.347L555.809 388.476L567.186 377.098ZM577.775 389.969L588.363 402.839L576.986 414.217L566.398 401.347L577.775 389.969ZM588.363 402.839L598.952 415.709L587.575 427.087L576.986 414.217L588.363 402.839ZM598.952 415.709L609.54 428.58L598.163 439.958L587.575 427.087L598.952 415.709ZM641.306 467.191L651.894 480.061L640.517 491.439L629.929 478.569L641.306 467.191ZM662.483 492.931L673.071 505.801L661.694 517.18L651.106 504.309L662.483 492.931ZM683.66 518.672L694.248 531.542L682.871 542.92L672.283 530.05L683.66 518.672ZM704.837 544.412L715.425 557.283L704.048 568.661L693.46 555.791L704.837 544.412ZM726.014 570.153L736.602 583.023L725.225 594.402L714.637 581.531L726.014 570.153ZM736.602 583.023L747.191 595.894L735.814 607.272L725.225 594.402L736.602 583.023ZM747.191 595.894L757.779 608.764L746.402 620.142L735.814 607.272L747.191 595.894ZM757.779 608.764L768.368 621.634L756.991 633.013L746.402 620.142L757.779 608.764ZM768.368 621.634L778.956 634.505L767.579 645.883L756.991 633.013L768.368 621.634ZM778.956 634.505L789.545 647.375L778.168 658.753L767.579 645.883L778.956 634.505ZM789.545 647.375L800.133 660.245L788.756 671.624L778.168 658.753L789.545 647.375ZM524.044 349.865L534.632 362.736L523.255 374.114L512.667 361.244L524.044 349.865ZM587.575 427.087L598.163 439.958L586.786 451.336L576.198 438.466L587.575 427.087ZM608.752 452.828L619.34 465.698L607.963 477.077L597.375 464.206L608.752 452.828ZM629.929 478.569L640.517 491.439L629.14 502.817L618.552 489.947L629.929 478.569ZM661.694 517.18L672.283 530.05L660.906 541.428L650.317 528.558L661.694 517.18ZM672.283 530.05L682.871 542.92L671.494 554.299L660.906 541.428L672.283 530.05ZM682.871 542.92L693.46 555.791L682.083 567.169L671.494 554.299L682.871 542.92ZM693.46 555.791L704.048 568.661L692.672 580.039L682.083 567.169L693.46 555.791ZM714.637 581.531L725.225 594.402L713.849 605.78L703.26 592.91L714.637 581.531ZM778.168 658.753L788.756 671.624L777.38 683.002L766.791 670.132L778.168 658.753ZM512.667 361.244L523.255 374.114L511.879 385.492L501.29 372.622L512.667 361.244ZM533.844 386.984L544.432 399.855L533.056 411.233L522.467 398.362L533.844 386.984ZM544.432 399.855L555.021 412.725L543.644 424.103L533.056 411.233L544.432 399.855ZM555.021 412.725L565.609 425.595L554.233 436.973L543.644 424.103L555.021 412.725ZM576.198 438.466L586.786 451.336L575.41 462.714L564.821 449.844L576.198 438.466ZM639.729 515.688L650.317 528.558L638.941 539.936L628.352 527.066L639.729 515.688ZM703.26 592.91L713.849 605.78L702.472 617.158L691.883 604.288L703.26 592.91ZM724.437 618.65L735.026 631.521L723.649 642.899L713.06 630.028L724.437 618.65ZM735.026 631.521L745.614 644.391L734.237 655.769L723.649 642.899L735.026 631.521ZM745.614 644.391L756.203 657.261L744.826 668.639L734.237 655.769L745.614 644.391ZM766.791 670.132L777.38 683.002L766.003 694.38L755.414 681.51L766.791 670.132ZM501.29 372.622L511.879 385.492L500.502 396.87L489.913 384L501.29 372.622ZM522.467 398.362L533.056 411.233L521.679 422.611L511.09 409.741L522.467 398.362ZM533.056 411.233L543.644 424.103L532.267 435.481L521.679 422.611L533.056 411.233ZM543.644 424.103L554.233 436.973L542.856 448.352L532.267 435.481L543.644 424.103ZM564.821 449.844L575.41 462.714L564.033 474.092L553.444 461.222L564.821 449.844ZM585.998 475.584L596.587 488.455L585.21 499.833L574.621 486.963L585.998 475.584ZM596.587 488.455L607.175 501.325L595.798 512.703L585.21 499.833L596.587 488.455ZM607.175 501.325L617.764 514.195L606.387 525.574L595.798 512.703L607.175 501.325ZM628.352 527.066L638.941 539.936L627.564 551.314L616.975 538.444L628.352 527.066ZM638.941 539.936L649.529 552.806L638.152 564.185L627.564 551.314L638.941 539.936ZM649.529 552.806L660.118 565.677L648.741 577.055L638.152 564.185L649.529 552.806ZM660.118 565.677L670.706 578.547L659.329 589.925L648.741 577.055L660.118 565.677ZM670.706 578.547L681.295 591.417L669.918 602.796L659.329 589.925L670.706 578.547ZM691.883 604.288L702.472 617.158L691.095 628.536L680.506 615.666L691.883 604.288ZM713.06 630.028L723.649 642.899L712.272 654.277L701.683 641.407L713.06 630.028ZM723.649 642.899L734.237 655.769L722.86 667.147L712.272 654.277L723.649 642.899ZM734.237 655.769L744.826 668.639L733.449 680.018L722.86 667.147L734.237 655.769ZM755.414 681.51L766.003 694.38L754.626 705.758L744.037 692.888L755.414 681.51ZM489.913 384L500.502 396.87L489.125 408.249L478.536 395.378L489.913 384ZM511.09 409.741L521.679 422.611L510.302 433.989L499.713 421.119L511.09 409.741ZM521.679 422.611L532.267 435.481L520.89 446.86L510.302 433.989L521.679 422.611ZM532.267 435.481L542.856 448.352L531.479 459.73L520.89 446.86L532.267 435.481ZM553.444 461.222L564.033 474.092L552.656 485.471L542.067 472.6L553.444 461.222ZM585.21 499.833L595.798 512.703L584.421 524.082L573.833 511.211L585.21 499.833ZM638.152 564.185L648.741 577.055L637.364 588.433L626.776 575.563L638.152 564.185ZM659.329 589.925L669.918 602.796L658.541 614.174L647.953 601.304L659.329 589.925ZM680.506 615.666L691.095 628.536L679.718 639.915L669.13 627.044L680.506 615.666ZM701.683 641.407L712.272 654.277L700.895 665.655L690.307 652.785L701.683 641.407ZM712.272 654.277L722.86 667.147L711.484 678.526L700.895 665.655L712.272 654.277ZM722.86 667.147L733.449 680.018L722.072 691.396L711.484 678.526L722.86 667.147ZM744.037 692.888L754.626 705.758L743.249 717.136L732.661 704.266L744.037 692.888ZM478.536 395.378L489.125 408.249L477.748 419.627L467.16 406.756L478.536 395.378ZM542.067 472.6L552.656 485.471L541.279 496.849L530.691 483.978L542.067 472.6ZM563.244 498.341L573.833 511.211L562.456 522.589L551.868 509.719L563.244 498.341ZM573.833 511.211L584.421 524.082L573.045 535.46L562.456 522.589L573.833 511.211ZM595.01 536.952L605.598 549.822L594.222 561.2L583.633 548.33L595.01 536.952ZM605.598 549.822L616.187 562.693L604.81 574.071L594.222 561.2L605.598 549.822ZM616.187 562.693L626.776 575.563L615.399 586.941L604.81 574.071L616.187 562.693ZM637.364 588.433L647.953 601.304L636.576 612.682L625.987 599.811L637.364 588.433ZM669.13 627.044L679.718 639.915L668.341 651.293L657.753 638.422L669.13 627.044ZM732.661 704.266L743.249 717.136L731.872 728.515L721.284 715.644L732.661 704.266ZM467.16 406.756L477.748 419.627L466.371 431.005L455.783 418.135L467.16 406.756ZM477.748 419.627L488.337 432.497L476.96 443.875L466.371 431.005L477.748 419.627ZM488.337 432.497L498.925 445.367L487.548 456.746L476.96 443.875L488.337 432.497ZM498.925 445.367L509.514 458.238L498.137 469.616L487.548 456.746L498.925 445.367ZM509.514 458.238L520.102 471.108L508.725 482.486L498.137 469.616L509.514 458.238ZM520.102 471.108L530.691 483.978L519.314 495.357L508.725 482.486L520.102 471.108ZM530.691 483.978L541.279 496.849L529.902 508.227L519.314 495.357L530.691 483.978ZM551.868 509.719L562.456 522.589L551.079 533.968L540.491 521.097L551.868 509.719ZM573.045 535.46L583.633 548.33L572.256 559.708L561.668 546.838L573.045 535.46ZM594.222 561.2L604.81 574.071L593.433 585.449L582.845 572.579L594.222 561.2ZM615.399 586.941L625.987 599.811L614.61 611.19L604.022 598.319L615.399 586.941ZM636.576 612.682L647.164 625.552L635.787 636.93L625.199 624.06L636.576 612.682ZM657.753 638.422L668.341 651.293L656.964 662.671L646.376 649.801L657.753 638.422ZM668.341 651.293L678.93 664.163L667.553 675.541L656.964 662.671L668.341 651.293ZM678.93 664.163L689.518 677.033L678.141 688.412L667.553 675.541L678.93 664.163ZM689.518 677.033L700.107 689.904L688.73 701.282L678.141 688.412L689.518 677.033ZM700.107 689.904L710.695 702.774L699.318 714.152L688.73 701.282L700.107 689.904ZM710.695 702.774L721.284 715.644L709.907 727.023L699.318 714.152L710.695 702.774ZM721.284 715.644L731.872 728.515L720.495 739.893L709.907 727.023L721.284 715.644ZM551.079 533.968L561.668 546.838L550.291 558.216L539.703 545.346L551.079 533.968ZM561.668 546.838L572.256 559.708L560.88 571.086L550.291 558.216L561.668 546.838ZM572.256 559.708L582.845 572.579L571.468 583.957L560.88 571.086L572.256 559.708ZM604.022 598.319L614.61 611.19L603.234 622.568L592.645 609.697L604.022 598.319ZM614.61 611.19L625.199 624.06L613.822 635.438L603.234 622.568L614.61 611.19ZM625.199 624.06L635.787 636.93L624.411 648.308L613.822 635.438L625.199 624.06ZM444.406 429.513L454.994 442.383L443.618 453.761L433.029 440.891L444.406 429.513ZM454.994 442.383L465.583 455.253L454.206 466.632L443.618 453.761L454.994 442.383ZM465.583 455.253L476.171 468.124L464.795 479.502L454.206 466.632L465.583 455.253ZM476.171 468.124L486.76 480.994L475.383 492.372L464.795 479.502L476.171 468.124ZM486.76 480.994L497.348 493.864L485.972 505.243L475.383 492.372L486.76 480.994ZM507.937 506.735L518.525 519.605L507.149 530.983L496.56 518.113L507.937 506.735ZM518.525 519.605L529.114 532.475L517.737 543.854L507.149 530.983L518.525 519.605ZM529.114 532.475L539.703 545.346L528.326 556.724L517.737 543.854L529.114 532.475ZM539.703 545.346L550.291 558.216L538.914 569.594L528.326 556.724L539.703 545.346ZM560.88 571.086L571.468 583.957L560.091 595.335L549.503 582.465L560.88 571.086ZM582.057 596.827L592.645 609.697L581.268 621.076L570.68 608.205L582.057 596.827ZM592.645 609.697L603.234 622.568L591.857 633.946L581.268 621.076L592.645 609.697ZM603.234 622.568L613.822 635.438L602.445 646.816L591.857 633.946L603.234 622.568ZM624.411 648.308L634.999 661.179L623.622 672.557L613.034 659.687L624.411 648.308ZM645.588 674.049L656.176 686.919L644.799 698.298L634.211 685.427L645.588 674.049ZM666.765 699.79L677.353 712.66L665.976 724.038L655.388 711.168L666.765 699.79ZM687.942 725.53L698.53 738.401L687.153 749.779L676.565 736.909L687.942 725.53ZM443.618 453.761L454.206 466.632L442.829 478.01L432.241 465.14L443.618 453.761ZM454.206 466.632L464.795 479.502L453.418 490.88L442.829 478.01L454.206 466.632ZM475.383 492.372L485.972 505.243L474.595 516.621L464.006 503.751L475.383 492.372ZM485.972 505.243L496.56 518.113L485.183 529.491L474.595 516.621L485.972 505.243ZM538.914 569.594L549.503 582.465L538.126 593.843L527.537 580.973L538.914 569.594ZM560.091 595.335L570.68 608.205L559.303 619.584L548.714 606.713L560.091 595.335ZM602.445 646.816L613.034 659.687L601.657 671.065L591.068 658.195L602.445 646.816ZM634.211 685.427L644.799 698.298L633.422 709.676L622.834 696.806L634.211 685.427ZM676.565 736.909L687.153 749.779L675.777 761.157L665.188 748.287L676.565 736.909ZM421.652 452.269L432.241 465.14L420.864 476.518L410.275 463.647L421.652 452.269ZM432.241 465.14L442.829 478.01L431.452 489.388L420.864 476.518L432.241 465.14ZM464.006 503.751L474.595 516.621L463.218 527.999L452.629 515.129L464.006 503.751ZM474.595 516.621L485.183 529.491L473.807 540.869L463.218 527.999L474.595 516.621ZM485.183 529.491L495.772 542.362L484.395 553.74L473.807 540.869L485.183 529.491ZM495.772 542.362L506.36 555.232L494.984 566.61L484.395 553.74L495.772 542.362ZM527.537 580.973L538.126 593.843L526.749 605.221L516.161 592.351L527.537 580.973ZM569.891 632.454L580.48 645.324L569.103 656.702L558.515 643.832L569.891 632.454ZM580.48 645.324L591.068 658.195L579.692 669.573L569.103 656.702L580.48 645.324ZM612.245 683.935L622.834 696.806L611.457 708.184L600.869 695.313L612.245 683.935ZM644.011 722.546L654.599 735.417L643.223 746.795L632.634 733.924L644.011 722.546ZM654.599 735.417L665.188 748.287L653.811 759.665L643.223 746.795L654.599 735.417ZM665.188 748.287L675.777 761.157L664.4 772.535L653.811 759.665L665.188 748.287ZM675.777 761.157L686.365 774.028L674.988 785.406L664.4 772.535L675.777 761.157ZM410.275 463.647L420.864 476.518L409.487 487.896L398.899 475.026L410.275 463.647ZM420.864 476.518L431.452 489.388L420.076 500.766L409.487 487.896L420.864 476.518ZM452.629 515.129L463.218 527.999L451.841 539.377L441.253 526.507L452.629 515.129ZM463.218 527.999L473.807 540.869L462.43 552.248L451.841 539.377L463.218 527.999ZM484.395 553.74L494.984 566.61L483.607 577.988L473.018 565.118L484.395 553.74ZM494.984 566.61L505.572 579.48L494.195 590.859L483.607 577.988L494.984 566.61ZM537.338 618.091L547.926 630.962L536.549 642.34L525.961 629.47L537.338 618.091ZM579.692 669.573L590.28 682.443L578.903 693.821L568.315 680.951L579.692 669.573ZM590.28 682.443L600.869 695.313L589.492 706.692L578.903 693.821L590.28 682.443ZM600.869 695.313L611.457 708.184L600.08 719.562L589.492 706.692L600.869 695.313ZM611.457 708.184L622.046 721.054L610.669 732.432L600.08 719.562L611.457 708.184ZM653.811 759.665L664.4 772.535L653.023 783.914L642.434 771.043L653.811 759.665ZM664.4 772.535L674.988 785.406L663.611 796.784L653.023 783.914L664.4 772.535ZM420.076 500.766L430.664 513.637L419.287 525.015L408.699 512.145L420.076 500.766ZM451.841 539.377L462.43 552.248L451.053 563.626L440.464 550.756L451.841 539.377ZM462.43 552.248L473.018 565.118L461.641 576.496L451.053 563.626L462.43 552.248ZM494.195 590.859L504.784 603.729L493.407 615.107L482.818 602.237L494.195 590.859ZM504.784 603.729L515.372 616.599L503.995 627.977L493.407 615.107L504.784 603.729ZM525.961 629.47L536.549 642.34L525.172 653.718L514.584 640.848L525.961 629.47ZM536.549 642.34L547.138 655.21L535.761 666.588L525.172 653.718L536.549 642.34ZM547.138 655.21L557.726 668.081L546.349 679.459L535.761 666.588L547.138 655.21ZM557.726 668.081L568.315 680.951L556.938 692.329L546.349 679.459L557.726 668.081ZM568.315 680.951L578.903 693.821L567.526 705.199L556.938 692.329L568.315 680.951ZM578.903 693.821L589.492 706.692L578.115 718.07L567.526 705.199L578.903 693.821ZM589.492 706.692L600.08 719.562L588.704 730.94L578.115 718.07L589.492 706.692ZM610.669 732.432L621.257 745.303L609.881 756.681L599.292 743.81L610.669 732.432ZM621.257 745.303L631.846 758.173L620.469 769.551L609.881 756.681L621.257 745.303ZM631.846 758.173L642.434 771.043L631.058 782.421L620.469 769.551L631.846 758.173ZM653.023 783.914L663.611 796.784L652.235 808.162L641.646 795.292L653.023 783.914ZM387.522 486.404L398.11 499.274L386.734 510.652L376.145 497.782L387.522 486.404ZM398.11 499.274L408.699 512.145L397.322 523.523L386.734 510.652L398.11 499.274ZM408.699 512.145L419.287 525.015L407.911 536.393L397.322 523.523L408.699 512.145ZM419.287 525.015L429.876 537.885L418.499 549.263L407.911 536.393L419.287 525.015ZM482.818 602.237L493.407 615.107L482.03 626.485L471.442 613.615L482.818 602.237ZM556.938 692.329L567.526 705.199L556.15 716.578L545.561 703.707L556.938 692.329ZM567.526 705.199L578.115 718.07L566.738 729.448L556.15 716.578L567.526 705.199ZM588.704 730.94L599.292 743.81L587.915 755.189L577.327 742.318L588.704 730.94ZM376.145 497.782L386.734 510.652L375.357 522.031L364.768 509.16L376.145 497.782ZM439.676 575.004L450.265 587.874L438.888 599.253L428.299 586.382L439.676 575.004ZM482.03 626.485L492.619 639.356L481.242 650.734L470.653 637.864L482.03 626.485ZM492.619 639.356L503.207 652.226L491.83 663.604L481.242 650.734L492.619 639.356ZM503.207 652.226L513.796 665.096L502.419 676.475L491.83 663.604L503.207 652.226ZM534.973 690.837L545.561 703.707L534.184 715.086L523.596 702.215L534.973 690.837ZM566.738 729.448L577.327 742.318L565.95 753.697L555.361 740.826L566.738 729.448ZM587.915 755.189L598.504 768.059L587.127 779.437L576.538 766.567L587.915 755.189ZM598.504 768.059L609.092 780.929L597.715 792.308L587.127 779.437L598.504 768.059ZM619.681 793.8L630.269 806.67L618.892 818.048L608.304 805.178L619.681 793.8ZM630.269 806.67L640.858 819.54L629.481 830.919L618.892 818.048L630.269 806.67ZM364.768 509.16L375.357 522.031L363.98 533.409L353.391 520.538L364.768 509.16ZM407.122 560.642L417.711 573.512L406.334 584.89L395.745 572.02L407.122 560.642ZM438.888 599.253L449.476 612.123L438.099 623.501L427.511 610.631L438.888 599.253ZM470.653 637.864L481.242 650.734L469.865 662.112L459.276 649.242L470.653 637.864ZM481.242 650.734L491.83 663.604L480.453 674.982L469.865 662.112L481.242 650.734ZM513.007 689.345L523.596 702.215L512.219 713.593L501.63 700.723L513.007 689.345ZM523.596 702.215L534.184 715.086L522.808 726.464L512.219 713.593L523.596 702.215ZM534.184 715.086L544.773 727.956L533.396 739.334L522.808 726.464L534.184 715.086ZM544.773 727.956L555.361 740.826L543.985 752.204L533.396 739.334L544.773 727.956ZM565.95 753.697L576.538 766.567L565.162 777.945L554.573 765.075L565.95 753.697ZM608.304 805.178L618.892 818.048L607.516 829.426L596.927 816.556L608.304 805.178ZM353.391 520.538L363.98 533.409L352.603 544.787L342.015 531.917L353.391 520.538ZM374.568 546.279L385.157 559.149L373.78 570.528L363.192 557.657L374.568 546.279ZM385.157 559.149L395.745 572.02L384.369 583.398L373.78 570.528L385.157 559.149ZM406.334 584.89L416.922 597.76L405.546 609.139L394.957 596.268L406.334 584.89ZM416.922 597.76L427.511 610.631L416.134 622.009L405.546 609.139L416.922 597.76ZM438.099 623.501L448.688 636.371L437.311 647.75L426.723 634.879L438.099 623.501ZM469.865 662.112L480.453 674.982L469.077 686.361L458.488 673.49L469.865 662.112ZM512.219 713.593L522.808 726.464L511.431 737.842L500.842 724.972L512.219 713.593ZM522.808 726.464L533.396 739.334L522.019 750.712L511.431 737.842L522.808 726.464ZM533.396 739.334L543.985 752.204L532.608 763.583L522.019 750.712L533.396 739.334ZM543.985 752.204L554.573 765.075L543.196 776.453L532.608 763.583L543.985 752.204ZM554.573 765.075L565.162 777.945L553.785 789.323L543.196 776.453L554.573 765.075ZM565.162 777.945L575.75 790.815L564.373 802.194L553.785 789.323L565.162 777.945ZM586.339 803.686L596.927 816.556L585.55 827.934L574.962 815.064L586.339 803.686ZM607.516 829.426L618.104 842.297L606.727 853.675L596.139 840.805L607.516 829.426ZM426.723 634.879L437.311 647.75L425.934 659.128L415.346 646.258L426.723 634.879ZM447.9 660.62L458.488 673.49L447.111 684.869L436.523 671.998L447.9 660.62ZM469.077 686.361L479.665 699.231L468.288 710.609L457.7 697.739L469.077 686.361ZM479.665 699.231L490.254 712.101L478.877 723.48L468.288 710.609L479.665 699.231ZM500.842 724.972L511.431 737.842L500.054 749.22L489.465 736.35L500.842 724.972ZM511.431 737.842L522.019 750.712L510.642 762.091L500.054 749.22L511.431 737.842ZM553.785 789.323L564.373 802.194L552.996 813.572L542.408 800.702L553.785 789.323ZM330.638 543.295L341.226 556.165L329.849 567.543L319.261 554.673L330.638 543.295ZM341.226 556.165L351.815 569.036L340.438 580.414L329.849 567.543L341.226 556.165ZM351.815 569.036L362.403 581.906L351.026 593.284L340.438 580.414L351.815 569.036ZM362.403 581.906L372.992 594.776L361.615 606.154L351.026 593.284L362.403 581.906ZM372.992 594.776L383.58 607.647L372.203 619.025L361.615 606.154L372.992 594.776ZM383.58 607.647L394.169 620.517L382.792 631.895L372.203 619.025L383.58 607.647ZM394.169 620.517L404.757 633.387L393.38 644.765L382.792 631.895L394.169 620.517ZM415.346 646.258L425.934 659.128L414.557 670.506L403.969 657.636L415.346 646.258ZM425.934 659.128L436.523 671.998L425.146 683.376L414.557 670.506L425.934 659.128ZM468.288 710.609L478.877 723.48L467.5 734.858L456.912 721.987L468.288 710.609ZM478.877 723.48L489.465 736.35L478.089 747.728L467.5 734.858L478.877 723.48ZM500.054 749.22L510.642 762.091L499.266 773.469L488.677 760.598L500.054 749.22ZM521.231 774.961L531.819 787.831L520.443 799.209L509.854 786.339L521.231 774.961ZM542.408 800.702L552.996 813.572L541.62 824.95L531.031 812.08L542.408 800.702ZM552.996 813.572L563.585 826.442L552.208 837.82L541.62 824.95L552.996 813.572ZM563.585 826.442L574.173 839.312L562.797 850.691L552.208 837.82L563.585 826.442ZM574.173 839.312L584.762 852.183L573.385 863.561L562.797 850.691L574.173 839.312ZM584.762 852.183L595.35 865.053L583.974 876.431L573.385 863.561L584.762 852.183ZM319.261 554.673L329.849 567.543L318.473 578.922L307.884 566.051L319.261 554.673ZM382.792 631.895L393.38 644.765L382.004 656.144L371.415 643.273L382.792 631.895ZM425.146 683.376L435.735 696.247L424.358 707.625L413.769 694.755L425.146 683.376ZM446.323 709.117L456.912 721.987L445.535 733.366L434.946 720.495L446.323 709.117ZM456.912 721.987L467.5 734.858L456.123 746.236L445.535 733.366L456.912 721.987ZM488.677 760.598L499.266 773.469L487.889 784.847L477.3 771.977L488.677 760.598ZM531.031 812.08L541.62 824.95L530.243 836.328L519.654 823.458L531.031 812.08ZM562.797 850.691L573.385 863.561L562.008 874.939L551.42 862.069L562.797 850.691ZM573.385 863.561L583.974 876.431L572.597 887.81L562.008 874.939L573.385 863.561ZM307.884 566.051L318.473 578.922L307.096 590.3L296.507 577.429L307.884 566.051ZM329.061 591.792L339.65 604.662L328.273 616.04L317.684 603.17L329.061 591.792ZM339.65 604.662L350.238 617.533L338.861 628.911L328.273 616.04L339.65 604.662ZM350.238 617.533L360.827 630.403L349.45 641.781L338.861 628.911L350.238 617.533ZM371.415 643.273L382.004 656.144L370.627 667.522L360.038 654.651L371.415 643.273ZM392.592 669.014L403.181 681.884L391.804 693.262L381.215 680.392L392.592 669.014ZM434.946 720.495L445.535 733.366L434.158 744.744L423.569 731.873L434.946 720.495ZM456.123 746.236L466.712 759.106L455.335 770.484L444.746 757.614L456.123 746.236ZM466.712 759.106L477.3 771.977L465.923 783.355L455.335 770.484L466.712 759.106ZM477.3 771.977L487.889 784.847L476.512 796.225L465.923 783.355L477.3 771.977ZM487.889 784.847L498.477 797.717L487.1 809.095L476.512 796.225L487.889 784.847ZM498.477 797.717L509.066 810.588L497.689 821.966L487.1 809.095L498.477 797.717ZM509.066 810.588L519.654 823.458L508.277 834.836L497.689 821.966L509.066 810.588ZM519.654 823.458L530.243 836.328L518.866 847.706L508.277 834.836L519.654 823.458ZM530.243 836.328L540.831 849.199L529.454 860.577L518.866 847.706L530.243 836.328ZM540.831 849.199L551.42 862.069L540.043 873.447L529.454 860.577L540.831 849.199ZM551.42 862.069L562.008 874.939L550.632 886.317L540.043 873.447L551.42 862.069ZM562.008 874.939L572.597 887.81L561.22 899.188L550.632 886.317L562.008 874.939ZM296.507 577.429L307.096 590.3L295.719 601.678L285.13 588.808L296.507 577.429ZM317.684 603.17L328.273 616.04L316.896 627.419L306.307 614.548L317.684 603.17ZM328.273 616.04L338.861 628.911L327.484 640.289L316.896 627.419L328.273 616.04ZM338.861 628.911L349.45 641.781L338.073 653.159L327.484 640.289L338.861 628.911ZM360.038 654.651L370.627 667.522L359.25 678.9L348.661 666.03L360.038 654.651ZM381.215 680.392L391.804 693.262L380.427 704.641L369.839 691.77L381.215 680.392ZM391.804 693.262L402.392 706.133L391.016 717.511L380.427 704.641L391.804 693.262ZM402.392 706.133L412.981 719.003L401.604 730.381L391.016 717.511L402.392 706.133ZM455.335 770.484L465.923 783.355L454.547 794.733L443.958 781.863L455.335 770.484ZM476.512 796.225L487.1 809.095L475.724 820.474L465.135 807.603L476.512 796.225ZM487.1 809.095L497.689 821.966L486.312 833.344L475.724 820.474L487.1 809.095ZM497.689 821.966L508.277 834.836L496.901 846.214L486.312 833.344L497.689 821.966ZM508.277 834.836L518.866 847.706L507.489 859.085L496.901 846.214L508.277 834.836ZM540.043 873.447L550.632 886.317L539.255 897.696L528.666 884.825L540.043 873.447ZM550.632 886.317L561.22 899.188L549.843 910.566L539.255 897.696L550.632 886.317ZM285.13 588.808L295.719 601.678L284.342 613.056L273.754 600.186L285.13 588.808ZM306.307 614.548L316.896 627.419L305.519 638.797L294.931 625.927L306.307 614.548ZM316.896 627.419L327.484 640.289L316.108 651.667L305.519 638.797L316.896 627.419ZM327.484 640.289L338.073 653.159L326.696 664.538L316.108 651.667L327.484 640.289ZM348.661 666.03L359.25 678.9L347.873 690.278L337.285 677.408L348.661 666.03ZM369.839 691.77L380.427 704.641L369.05 716.019L358.462 703.149L369.839 691.77ZM391.016 717.511L401.604 730.381L390.227 741.76L379.639 728.889L391.016 717.511ZM401.604 730.381L412.193 743.252L400.816 754.63L390.227 741.76L401.604 730.381ZM412.193 743.252L422.781 756.122L411.404 767.5L400.816 754.63L412.193 743.252ZM454.547 794.733L465.135 807.603L453.758 818.982L443.17 806.111L454.547 794.733ZM465.135 807.603L475.724 820.474L464.347 831.852L453.758 818.982L465.135 807.603ZM486.312 833.344L496.901 846.214L485.524 857.593L474.935 844.722L486.312 833.344ZM507.489 859.085L518.078 871.955L506.701 883.333L496.112 870.463L507.489 859.085ZM539.255 897.696L549.843 910.566L538.466 921.944L527.878 909.074L539.255 897.696ZM273.754 600.186L284.342 613.056L272.965 624.434L262.377 611.564L273.754 600.186ZM337.285 677.408L347.873 690.278L336.496 701.656L325.908 688.786L337.285 677.408ZM358.462 703.149L369.05 716.019L357.673 727.397L347.085 714.527L358.462 703.149ZM390.227 741.76L400.816 754.63L389.439 766.008L378.85 753.138L390.227 741.76ZM421.993 780.371L432.581 793.241L421.204 804.619L410.616 791.749L421.993 780.371ZM443.17 806.111L453.758 818.982L442.381 830.36L431.793 817.489L443.17 806.111ZM453.758 818.982L464.347 831.852L452.97 843.23L442.381 830.36L453.758 818.982ZM464.347 831.852L474.935 844.722L463.558 856.1L452.97 843.23L464.347 831.852ZM474.935 844.722L485.524 857.593L474.147 868.971L463.558 856.1L474.935 844.722ZM485.524 857.593L496.112 870.463L484.736 881.841L474.147 868.971L485.524 857.593ZM527.878 909.074L538.466 921.944L527.09 933.322L516.501 920.452L527.878 909.074ZM262.377 611.564L272.965 624.434L261.588 635.813L251 622.942L262.377 611.564ZM272.965 624.434L283.554 637.305L272.177 648.683L261.588 635.813L272.965 624.434ZM283.554 637.305L294.142 650.175L282.766 661.553L272.177 648.683L283.554 637.305ZM294.142 650.175L304.731 663.045L293.354 674.424L282.766 661.553L294.142 650.175ZM304.731 663.045L315.319 675.916L303.943 687.294L293.354 674.424L304.731 663.045ZM315.319 675.916L325.908 688.786L314.531 700.164L303.943 687.294L315.319 675.916ZM325.908 688.786L336.496 701.656L325.12 713.035L314.531 700.164L325.908 688.786ZM347.085 714.527L357.673 727.397L346.297 738.775L335.708 725.905L347.085 714.527ZM357.673 727.397L368.262 740.267L356.885 751.646L346.297 738.775L357.673 727.397ZM368.262 740.267L378.85 753.138L367.474 764.516L356.885 751.646L368.262 740.267ZM378.85 753.138L389.439 766.008L378.062 777.386L367.474 764.516L378.85 753.138ZM421.204 804.619L431.793 817.489L420.416 828.868L409.828 815.997L421.204 804.619ZM495.324 894.711L505.913 907.582L494.536 918.96L483.947 906.09L495.324 894.711ZM505.913 907.582L516.501 920.452L505.124 931.83L494.536 918.96L505.913 907.582ZM516.501 920.452L527.09 933.322L515.713 944.701L505.124 931.83L516.501 920.452Z" fill="#FFADAD" fill-opacity="0.15"/>
<path d="M-122.58 -270.128L-111.991 -257.258L-123.368 -245.88L-133.956 -258.75L-122.58 -270.128ZM-111.991 -257.258L-101.403 -244.388L-112.779 -233.009L-123.368 -245.88L-111.991 -257.258ZM-101.403 -244.388L-90.814 -231.517L-102.191 -220.139L-112.779 -233.009L-101.403 -244.388ZM-90.814 -231.517L-80.2255 -218.647L-91.6023 -207.269L-102.191 -220.139L-90.814 -231.517ZM-80.2255 -218.647L-69.637 -205.777L-81.0138 -194.398L-91.6023 -207.269L-80.2255 -218.647ZM-69.637 -205.777L-59.0485 -192.906L-70.4253 -181.528L-81.0138 -194.398L-69.637 -205.777ZM-59.0485 -192.906L-48.46 -180.036L-59.8368 -168.658L-70.4253 -181.528L-59.0485 -192.906ZM-16.6944 -141.425L-6.10592 -128.555L-17.4827 -117.176L-28.0712 -130.047L-16.6944 -141.425ZM4.48259 -115.684L15.0711 -102.814L3.69428 -91.4357L-6.89423 -104.306L4.48259 -115.684ZM25.6596 -89.9435L36.2481 -77.0732L24.8713 -65.695L14.2828 -78.5653L25.6596 -89.9435ZM46.8366 -64.2029L57.4251 -51.3325L46.0483 -39.9543L35.4598 -52.8247L46.8366 -64.2029ZM68.0137 -38.4622L78.6022 -25.5919L67.2253 -14.2137L56.6368 -27.084L68.0137 -38.4622ZM78.6022 -25.5919L89.1907 -12.7215L77.8139 -1.34334L67.2253 -14.2137L78.6022 -25.5919ZM89.1907 -12.7215L99.7792 0.148787L88.4024 11.527L77.8139 -1.34334L89.1907 -12.7215ZM99.7792 0.148787L110.368 13.0191L98.9909 24.3973L88.4024 11.527L99.7792 0.148787ZM110.368 13.0191L120.956 25.8895L109.579 37.2677L98.9909 24.3973L110.368 13.0191ZM120.956 25.8895L131.545 38.7598L120.168 50.138L109.579 37.2677L120.956 25.8895ZM131.545 38.7598L142.133 51.6301L130.756 63.0083L120.168 50.138L131.545 38.7598ZM-133.956 -258.75L-123.368 -245.88L-134.745 -234.501L-145.333 -247.372L-133.956 -258.75ZM-70.4253 -181.528L-59.8368 -168.658L-71.2136 -157.279L-81.8021 -170.15L-70.4253 -181.528ZM-49.2483 -155.787L-38.6598 -142.917L-50.0366 -131.539L-60.6251 -144.409L-49.2483 -155.787ZM-28.0712 -130.047L-17.4827 -117.176L-28.8596 -105.798L-39.4481 -118.668L-28.0712 -130.047ZM3.69428 -91.4357L14.2828 -78.5653L2.90597 -67.1871L-7.68254 -80.0575L3.69428 -91.4357ZM14.2828 -78.5653L24.8713 -65.695L13.4945 -54.3168L2.90597 -67.1871L14.2828 -78.5653ZM24.8713 -65.695L35.4598 -52.8247L24.083 -41.4465L13.4945 -54.3168L24.8713 -65.695ZM35.4598 -52.8247L46.0483 -39.9543L34.6715 -28.5761L24.083 -41.4465L35.4598 -52.8247ZM56.6368 -27.084L67.2253 -14.2137L55.8485 -2.83547L45.26 -15.7058L56.6368 -27.084ZM120.168 50.138L130.756 63.0083L119.38 74.3865L108.791 61.5162L120.168 50.138ZM-145.333 -247.372L-134.745 -234.501L-146.121 -223.123L-156.71 -235.994L-145.333 -247.372ZM-124.156 -221.631L-113.568 -208.761L-124.944 -197.383L-135.533 -210.253L-124.156 -221.631ZM-113.568 -208.761L-102.979 -195.89L-114.356 -184.512L-124.944 -197.383L-113.568 -208.761ZM-102.979 -195.89L-92.3906 -183.02L-103.767 -171.642L-114.356 -184.512L-102.979 -195.89ZM-81.8021 -170.15L-71.2136 -157.279L-82.5904 -145.901L-93.1789 -158.772L-81.8021 -170.15ZM-18.271 -92.9278L-7.68254 -80.0575L-19.0594 -68.6793L-29.6479 -81.5496L-18.271 -92.9278ZM45.26 -15.7058L55.8485 -2.83547L44.4717 8.54274L33.8832 -4.32759L45.26 -15.7058ZM66.437 10.0349L77.0255 22.9052L65.6487 34.2834L55.0602 21.4131L66.437 10.0349ZM77.0255 22.9052L87.6141 35.7755L76.2372 47.1537L65.6487 34.2834L77.0255 22.9052ZM87.6141 35.7755L98.2026 48.6459L86.8257 60.0241L76.2372 47.1537L87.6141 35.7755ZM108.791 61.5162L119.38 74.3865L108.003 85.7647L97.4143 72.8944L108.791 61.5162ZM-156.71 -235.994L-146.121 -223.123L-157.498 -211.745L-168.087 -224.615L-156.71 -235.994ZM-135.533 -210.253L-124.944 -197.383L-136.321 -186.004L-146.91 -198.875L-135.533 -210.253ZM-124.944 -197.383L-114.356 -184.512L-125.733 -173.134L-136.321 -186.004L-124.944 -197.383ZM-114.356 -184.512L-103.767 -171.642L-115.144 -160.264L-125.733 -173.134L-114.356 -184.512ZM-93.1789 -158.772L-82.5904 -145.901L-93.9672 -134.523L-104.556 -147.393L-93.1789 -158.772ZM-72.0019 -133.031L-61.4134 -120.161L-72.7902 -108.782L-83.3787 -121.653L-72.0019 -133.031ZM-61.4134 -120.161L-50.8249 -107.29L-62.2017 -95.912L-72.7902 -108.782L-61.4134 -120.161ZM-50.8249 -107.29L-40.2364 -94.4199L-51.6132 -83.0417L-62.2017 -95.912L-50.8249 -107.29ZM-29.6479 -81.5496L-19.0594 -68.6793L-30.4362 -57.301L-41.0247 -70.1714L-29.6479 -81.5496ZM-19.0594 -68.6793L-8.47085 -55.8089L-19.8477 -44.4307L-30.4362 -57.301L-19.0594 -68.6793ZM-8.47085 -55.8089L2.11766 -42.9386L-9.25916 -31.5604L-19.8477 -44.4307L-8.47085 -55.8089ZM2.11766 -42.9386L12.7062 -30.0683L1.32935 -18.6901L-9.25916 -31.5604L2.11766 -42.9386ZM12.7062 -30.0683L23.2947 -17.1979L11.9179 -5.81972L1.32935 -18.6901L12.7062 -30.0683ZM33.8832 -4.32759L44.4717 8.54274L33.0949 19.9209L22.5064 7.05061L33.8832 -4.32759ZM55.0602 21.4131L65.6487 34.2834L54.2719 45.6616L43.6834 32.7913L55.0602 21.4131ZM65.6487 34.2834L76.2372 47.1537L64.8604 58.5319L54.2719 45.6616L65.6487 34.2834ZM76.2372 47.1537L86.8257 60.0241L75.4489 71.4023L64.8604 58.5319L76.2372 47.1537ZM97.4143 72.8944L108.003 85.7647L96.6259 97.1429L86.0374 84.2726L97.4143 72.8944ZM-168.087 -224.615L-157.498 -211.745L-168.875 -200.367L-179.464 -213.237L-168.087 -224.615ZM-146.91 -198.875L-136.321 -186.004L-147.698 -174.626L-158.287 -187.496L-146.91 -198.875ZM-136.321 -186.004L-125.733 -173.134L-137.11 -161.756L-147.698 -174.626L-136.321 -186.004ZM-125.733 -173.134L-115.144 -160.264L-126.521 -148.885L-137.11 -161.756L-125.733 -173.134ZM-104.556 -147.393L-93.9672 -134.523L-105.344 -123.145L-115.933 -136.015L-104.556 -147.393ZM-72.7902 -108.782L-62.2017 -95.912L-73.5785 -84.5338L-84.167 -97.4042L-72.7902 -108.782ZM-19.8477 -44.4307L-9.25916 -31.5604L-20.636 -20.1822L-31.2245 -33.0525L-19.8477 -44.4307ZM1.32935 -18.6901L11.9179 -5.81972L0.541045 5.55848L-10.0475 -7.31185L1.32935 -18.6901ZM22.5064 7.05061L33.0949 19.9209L21.7181 31.2991L11.1296 18.4288L22.5064 7.05061ZM43.6834 32.7913L54.2719 45.6616L42.8951 57.0398L32.3066 44.1695L43.6834 32.7913ZM54.2719 45.6616L64.8604 58.5319L53.4836 69.9101L42.8951 57.0398L54.2719 45.6616ZM64.8604 58.5319L75.4489 71.4023L64.0721 82.7805L53.4836 69.9101L64.8604 58.5319ZM86.0374 84.2726L96.6259 97.1429L85.2491 108.521L74.6606 95.6508L86.0374 84.2726ZM-179.464 -213.237L-168.875 -200.367L-180.252 -188.989L-190.84 -201.859L-179.464 -213.237ZM-115.933 -136.015L-105.344 -123.145L-116.721 -111.767L-127.309 -124.637L-115.933 -136.015ZM-94.7555 -110.274L-84.167 -97.4042L-95.5439 -86.026L-106.132 -98.8963L-94.7555 -110.274ZM-84.167 -97.4042L-73.5785 -84.5338L-84.9553 -73.1556L-95.5439 -86.026L-84.167 -97.4042ZM-62.99 -71.6635L-52.4015 -58.7932L-63.7783 -47.415L-74.3668 -60.2853L-62.99 -71.6635ZM-52.4015 -58.7932L-41.813 -45.9228L-53.1898 -34.5446L-63.7783 -47.415L-52.4015 -58.7932ZM-41.813 -45.9228L-31.2245 -33.0525L-42.6013 -21.6743L-53.1898 -34.5446L-41.813 -45.9228ZM-20.636 -20.1822L-10.0475 -7.31185L-21.4243 4.06636L-32.0128 -8.80397L-20.636 -20.1822ZM11.1296 18.4288L21.7181 31.2991L10.3412 42.6774L-0.247265 29.807L11.1296 18.4288ZM74.6606 95.6508L85.2491 108.521L73.8723 119.899L63.2838 107.029L74.6606 95.6508ZM-190.84 -201.859L-180.252 -188.989L-191.629 -177.61L-202.217 -190.481L-190.84 -201.859ZM-180.252 -188.989L-169.663 -176.118L-181.04 -164.74L-191.629 -177.61L-180.252 -188.989ZM-169.663 -176.118L-159.075 -163.248L-170.452 -151.87L-181.04 -164.74L-169.663 -176.118ZM-159.075 -163.248L-148.486 -150.378L-159.863 -138.999L-170.452 -151.87L-159.075 -163.248ZM-148.486 -150.378L-137.898 -137.507L-149.275 -126.129L-159.863 -138.999L-148.486 -150.378ZM-137.898 -137.507L-127.309 -124.637L-138.686 -113.259L-149.275 -126.129L-137.898 -137.507ZM-127.309 -124.637L-116.721 -111.767L-128.098 -100.388L-138.686 -113.259L-127.309 -124.637ZM-106.132 -98.8963L-95.5439 -86.026L-106.921 -74.6478L-117.509 -87.5181L-106.132 -98.8963ZM-84.9553 -73.1556L-74.3668 -60.2853L-85.7437 -48.9071L-96.3322 -61.7774L-84.9553 -73.1556ZM-63.7783 -47.415L-53.1898 -34.5446L-64.5666 -23.1664L-75.1551 -36.0368L-63.7783 -47.415ZM-42.6013 -21.6743L-32.0128 -8.80397L-43.3896 2.57423L-53.9781 -10.2961L-42.6013 -21.6743ZM-21.4243 4.06636L-10.8358 16.9367L-22.2126 28.3149L-32.8011 15.4446L-21.4243 4.06636ZM-0.247265 29.807L10.3412 42.6774L-1.03557 54.0556L-11.6241 41.1852L-0.247265 29.807ZM10.3412 42.6774L20.9298 55.5477L9.55294 66.9259L-1.03557 54.0556L10.3412 42.6774ZM20.9298 55.5477L31.5183 68.418L20.1414 79.7962L9.55294 66.9259L20.9298 55.5477ZM31.5183 68.418L42.1068 81.2883L30.73 92.6666L20.1414 79.7962L31.5183 68.418ZM42.1068 81.2883L52.6953 94.1587L41.3185 105.537L30.73 92.6666L42.1068 81.2883ZM52.6953 94.1587L63.2838 107.029L51.907 118.407L41.3185 105.537L52.6953 94.1587ZM63.2838 107.029L73.8723 119.899L62.4955 131.278L51.907 118.407L63.2838 107.029ZM-106.921 -74.6478L-96.3322 -61.7774L-107.709 -50.3992L-118.297 -63.2696L-106.921 -74.6478ZM-96.3322 -61.7774L-85.7437 -48.9071L-97.1205 -37.5289L-107.709 -50.3992L-96.3322 -61.7774ZM-85.7437 -48.9071L-75.1551 -36.0368L-86.532 -24.6586L-97.1205 -37.5289L-85.7437 -48.9071ZM-53.9781 -10.2961L-43.3896 2.57423L-54.7664 13.9524L-65.3549 1.0821L-53.9781 -10.2961ZM-43.3896 2.57423L-32.8011 15.4446L-44.1779 26.8228L-54.7664 13.9524L-43.3896 2.57423ZM-32.8011 15.4446L-22.2126 28.3149L-33.5894 39.6931L-44.1779 26.8228L-32.8011 15.4446ZM-213.594 -179.103L-203.006 -166.232L-214.382 -154.854L-224.971 -167.724L-213.594 -179.103ZM-203.006 -166.232L-192.417 -153.362L-203.794 -141.984L-214.382 -154.854L-203.006 -166.232ZM-192.417 -153.362L-181.829 -140.492L-193.205 -129.113L-203.794 -141.984L-192.417 -153.362ZM-181.829 -140.492L-171.24 -127.621L-182.617 -116.243L-193.205 -129.113L-181.829 -140.492ZM-171.24 -127.621L-160.652 -114.751L-172.028 -103.373L-182.617 -116.243L-171.24 -127.621ZM-150.063 -101.881L-139.475 -89.0102L-150.851 -77.632L-161.44 -90.5023L-150.063 -101.881ZM-139.475 -89.0102L-128.886 -76.1399L-140.263 -64.7617L-150.851 -77.632L-139.475 -89.0102ZM-128.886 -76.1399L-118.297 -63.2696L-129.674 -51.8913L-140.263 -64.7617L-128.886 -76.1399ZM-118.297 -63.2696L-107.709 -50.3992L-119.086 -39.021L-129.674 -51.8913L-118.297 -63.2696ZM-97.1205 -37.5289L-86.532 -24.6586L-97.9088 -13.2804L-108.497 -26.1507L-97.1205 -37.5289ZM-75.9435 -11.7882L-65.3549 1.0821L-76.7318 12.4603L-87.3203 -0.410023L-75.9435 -11.7882ZM-65.3549 1.0821L-54.7664 13.9524L-66.1433 25.3306L-76.7318 12.4603L-65.3549 1.0821ZM-54.7664 13.9524L-44.1779 26.8228L-55.5547 38.201L-66.1433 25.3306L-54.7664 13.9524ZM-33.5894 39.6931L-23.0009 52.5634L-34.3777 63.9416L-44.9662 51.0713L-33.5894 39.6931ZM-12.4124 65.4338L-1.82388 78.3041L-13.2007 89.6823L-23.7892 76.812L-12.4124 65.4338ZM8.76463 91.1744L19.3531 104.045L7.97632 115.423L-2.61219 102.553L8.76463 91.1744ZM29.9416 116.915L40.5302 129.785L29.1533 141.164L18.5648 128.293L29.9416 116.915ZM-214.382 -154.854L-203.794 -141.984L-215.171 -130.605L-225.759 -143.476L-214.382 -154.854ZM-203.794 -141.984L-193.205 -129.113L-204.582 -117.735L-215.171 -130.605L-203.794 -141.984ZM-182.617 -116.243L-172.028 -103.373L-183.405 -91.9945L-193.994 -104.865L-182.617 -116.243ZM-172.028 -103.373L-161.44 -90.5023L-172.817 -79.1241L-183.405 -91.9945L-172.028 -103.373ZM-119.086 -39.021L-108.497 -26.1507L-119.874 -14.7725L-130.463 -27.6428L-119.086 -39.021ZM-97.9088 -13.2804L-87.3203 -0.410023L-98.6971 10.9682L-109.286 -1.90215L-97.9088 -13.2804ZM-55.5547 38.201L-44.9662 51.0713L-56.3431 62.4495L-66.9316 49.5792L-55.5547 38.201ZM-23.7892 76.812L-13.2007 89.6823L-24.5775 101.061L-35.166 88.1902L-23.7892 76.812ZM18.5648 128.293L29.1533 141.164L17.7765 152.542L7.18801 139.671L18.5648 128.293ZM-236.348 -156.346L-225.759 -143.476L-237.136 -132.098L-247.725 -144.968L-236.348 -156.346ZM-225.759 -143.476L-215.171 -130.605L-226.548 -119.227L-237.136 -132.098L-225.759 -143.476ZM-193.994 -104.865L-183.405 -91.9945L-194.782 -80.6163L-205.371 -93.4866L-193.994 -104.865ZM-183.405 -91.9945L-172.817 -79.1241L-184.193 -67.7459L-194.782 -80.6163L-183.405 -91.9945ZM-172.817 -79.1241L-162.228 -66.2538L-173.605 -54.8756L-184.193 -67.7459L-172.817 -79.1241ZM-162.228 -66.2538L-151.64 -53.3835L-163.016 -42.0053L-173.605 -54.8756L-162.228 -66.2538ZM-130.463 -27.6428L-119.874 -14.7725L-131.251 -3.39428L-141.839 -16.2646L-130.463 -27.6428ZM-88.1086 23.8385L-77.5201 36.7088L-88.8969 48.087L-99.4854 35.2167L-88.1086 23.8385ZM-77.5201 36.7088L-66.9316 49.5792L-78.3084 60.9574L-88.8969 48.087L-77.5201 36.7088ZM-45.7545 75.3198L-35.166 88.1902L-46.5429 99.5684L-57.1314 86.698L-45.7545 75.3198ZM-13.989 113.931L-3.4005 126.801L-14.7773 138.179L-25.3658 125.309L-13.989 113.931ZM-3.4005 126.801L7.18801 139.671L-4.18881 151.05L-14.7773 138.179L-3.4005 126.801ZM7.18801 139.671L17.7765 152.542L6.3997 163.92L-4.18881 151.05L7.18801 139.671ZM17.7765 152.542L28.365 165.412L16.9882 176.79L6.3997 163.92L17.7765 152.542ZM-247.725 -144.968L-237.136 -132.098L-248.513 -120.719L-259.101 -133.59L-247.725 -144.968ZM-237.136 -132.098L-226.548 -119.227L-237.924 -107.849L-248.513 -120.719L-237.136 -132.098ZM-205.371 -93.4866L-194.782 -80.6163L-206.159 -69.2381L-216.747 -82.1084L-205.371 -93.4866ZM-194.782 -80.6163L-184.193 -67.7459L-195.57 -56.3677L-206.159 -69.2381L-194.782 -80.6163ZM-173.605 -54.8756L-163.016 -42.0053L-174.393 -30.6271L-184.982 -43.4974L-173.605 -54.8756ZM-163.016 -42.0053L-152.428 -29.1349L-163.805 -17.7567L-174.393 -30.6271L-163.016 -42.0053ZM-120.662 9.47605L-110.074 22.3464L-121.451 33.7246L-132.039 20.8543L-120.662 9.47605ZM-78.3084 60.9574L-67.7199 73.8277L-79.0967 85.2059L-89.6852 72.3356L-78.3084 60.9574ZM-67.7199 73.8277L-57.1314 86.698L-68.5082 98.0762L-79.0967 85.2059L-67.7199 73.8277ZM-57.1314 86.698L-46.5429 99.5684L-57.9197 110.947L-68.5082 98.0762L-57.1314 86.698ZM-46.5429 99.5684L-35.9543 112.439L-47.3312 123.817L-57.9197 110.947L-46.5429 99.5684ZM-4.18881 151.05L6.3997 163.92L-4.97712 175.298L-15.5656 162.428L-4.18881 151.05ZM6.3997 163.92L16.9882 176.79L5.61139 188.169L-4.97712 175.298L6.3997 163.92ZM-237.924 -107.849L-227.336 -94.9787L-238.713 -83.6005L-249.301 -96.4709L-237.924 -107.849ZM-206.159 -69.2381L-195.57 -56.3677L-206.947 -44.9895L-217.536 -57.8599L-206.159 -69.2381ZM-195.57 -56.3677L-184.982 -43.4974L-196.359 -32.1192L-206.947 -44.9895L-195.57 -56.3677ZM-163.805 -17.7567L-153.216 -4.8864L-164.593 6.4918L-175.182 -6.37853L-163.805 -17.7567ZM-153.216 -4.8864L-142.628 7.98393L-154.005 19.3621L-164.593 6.4918L-153.216 -4.8864ZM-132.039 20.8543L-121.451 33.7246L-132.828 45.1028L-143.416 32.2325L-132.039 20.8543ZM-121.451 33.7246L-110.862 46.5949L-122.239 57.9731L-132.828 45.1028L-121.451 33.7246ZM-110.862 46.5949L-100.274 59.4653L-111.651 70.8435L-122.239 57.9731L-110.862 46.5949ZM-100.274 59.4653L-89.6852 72.3356L-101.062 83.7138L-111.651 70.8435L-100.274 59.4653ZM-89.6852 72.3356L-79.0967 85.2059L-90.4735 96.5841L-101.062 83.7138L-89.6852 72.3356ZM-79.0967 85.2059L-68.5082 98.0762L-79.885 109.454L-90.4735 96.5841L-79.0967 85.2059ZM-68.5082 98.0762L-57.9197 110.947L-69.2965 122.325L-79.885 109.454L-68.5082 98.0762ZM-47.3312 123.817L-36.7427 136.687L-48.1195 148.065L-58.708 135.195L-47.3312 123.817ZM-36.7427 136.687L-26.1541 149.558L-37.531 160.936L-48.1195 148.065L-36.7427 136.687ZM-26.1541 149.558L-15.5656 162.428L-26.9425 173.806L-37.531 160.936L-26.1541 149.558ZM-4.97712 175.298L5.61139 188.169L-5.76543 199.547L-16.3539 186.676L-4.97712 175.298ZM-270.478 -122.212L-259.89 -109.341L-271.266 -97.963L-281.855 -110.833L-270.478 -122.212ZM-259.89 -109.341L-249.301 -96.4709L-260.678 -85.0926L-271.266 -97.963L-259.89 -109.341ZM-249.301 -96.4709L-238.713 -83.6005L-250.089 -72.2223L-260.678 -85.0926L-249.301 -96.4709ZM-238.713 -83.6005L-228.124 -70.7302L-239.501 -59.352L-250.089 -72.2223L-238.713 -83.6005ZM-175.182 -6.37853L-164.593 6.4918L-175.97 17.87L-186.558 4.99967L-175.182 -6.37853ZM-101.062 83.7138L-90.4735 96.5841L-101.85 107.962L-112.439 95.092L-101.062 83.7138ZM-90.4735 96.5841L-79.885 109.454L-91.2618 120.833L-101.85 107.962L-90.4735 96.5841ZM-69.2965 122.325L-58.708 135.195L-70.0848 146.573L-80.6733 133.703L-69.2965 122.325ZM-281.855 -110.833L-271.266 -97.963L-282.643 -86.5848L-293.232 -99.4551L-281.855 -110.833ZM-218.324 -33.6113L-207.735 -20.741L-219.112 -9.36278L-229.701 -22.2331L-218.324 -33.6113ZM-175.97 17.87L-165.381 30.7403L-176.758 42.1185L-187.347 29.2482L-175.97 17.87ZM-165.381 30.7403L-154.793 43.6107L-166.17 54.9889L-176.758 42.1185L-165.381 30.7403ZM-154.793 43.6107L-144.204 56.481L-155.581 67.8592L-166.17 54.9889L-154.793 43.6107ZM-123.027 82.2217L-112.439 95.092L-123.816 106.47L-134.404 93.5999L-123.027 82.2217ZM-91.2618 120.833L-80.6733 133.703L-92.0501 145.081L-102.639 132.211L-91.2618 120.833ZM-70.0848 146.573L-59.4963 159.444L-70.8731 170.822L-81.4616 157.952L-70.0848 146.573ZM-59.4963 159.444L-48.9078 172.314L-60.2846 183.692L-70.8731 170.822L-59.4963 159.444ZM-38.3193 185.184L-27.7308 198.055L-39.1076 209.433L-49.6961 196.563L-38.3193 185.184ZM-27.7308 198.055L-17.1423 210.925L-28.5191 222.303L-39.1076 209.433L-27.7308 198.055ZM-293.232 -99.4551L-282.643 -86.5848L-294.02 -75.2066L-304.609 -88.0769L-293.232 -99.4551ZM-250.878 -47.9738L-240.289 -35.1034L-251.666 -23.7252L-262.255 -36.5956L-250.878 -47.9738ZM-219.112 -9.36278L-208.524 3.50755L-219.901 14.8858L-230.489 2.01542L-219.112 -9.36278ZM-187.347 29.2482L-176.758 42.1185L-188.135 53.4967L-198.724 40.6264L-187.347 29.2482ZM-176.758 42.1185L-166.17 54.9889L-177.547 66.3671L-188.135 53.4967L-176.758 42.1185ZM-144.993 80.7295L-134.404 93.5999L-145.781 104.978L-156.37 92.1077L-144.993 80.7295ZM-134.404 93.5999L-123.816 106.47L-135.192 117.848L-145.781 104.978L-134.404 93.5999ZM-123.816 106.47L-113.227 119.341L-124.604 130.719L-135.192 117.848L-123.816 106.47ZM-113.227 119.341L-102.639 132.211L-114.015 143.589L-124.604 130.719L-113.227 119.341ZM-92.0501 145.081L-81.4616 157.952L-92.8384 169.33L-103.427 156.459L-92.0501 145.081ZM-49.6961 196.563L-39.1076 209.433L-50.4844 220.811L-61.0729 207.941L-49.6961 196.563ZM-304.609 -88.0769L-294.02 -75.2066L-305.397 -63.8284L-315.985 -76.6987L-304.609 -88.0769ZM-283.432 -62.3362L-272.843 -49.4659L-284.22 -38.0877L-294.808 -50.958L-283.432 -62.3362ZM-272.843 -49.4659L-262.255 -36.5956L-273.631 -25.2174L-284.22 -38.0877L-272.843 -49.4659ZM-251.666 -23.7252L-241.078 -10.8549L-252.454 0.523293L-263.043 -12.347L-251.666 -23.7252ZM-241.078 -10.8549L-230.489 2.01542L-241.866 13.3936L-252.454 0.523293L-241.078 -10.8549ZM-219.901 14.8858L-209.312 27.7561L-220.689 39.1343L-231.277 26.264L-219.901 14.8858ZM-188.135 53.4967L-177.547 66.3671L-188.923 77.7453L-199.512 64.875L-188.135 53.4967ZM-145.781 104.978L-135.192 117.848L-146.569 129.227L-157.158 116.356L-145.781 104.978ZM-135.192 117.848L-124.604 130.719L-135.981 142.097L-146.569 129.227L-135.192 117.848ZM-124.604 130.719L-114.015 143.589L-125.392 154.967L-135.981 142.097L-124.604 130.719ZM-114.015 143.589L-103.427 156.459L-114.804 167.838L-125.392 154.967L-114.015 143.589ZM-103.427 156.459L-92.8384 169.33L-104.215 180.708L-114.804 167.838L-103.427 156.459ZM-92.8384 169.33L-82.2499 182.2L-93.6268 193.578L-104.215 180.708L-92.8384 169.33ZM-71.6614 195.07L-61.0729 207.941L-72.4497 219.319L-83.0382 206.449L-71.6614 195.07ZM-50.4844 220.811L-39.8959 233.681L-51.2727 245.06L-61.8612 232.189L-50.4844 220.811ZM-231.277 26.264L-220.689 39.1343L-232.066 50.5125L-242.654 37.6422L-231.277 26.264ZM-210.1 52.0046L-199.512 64.875L-210.889 76.2532L-221.477 63.3828L-210.1 52.0046ZM-188.923 77.7453L-178.335 90.6156L-189.712 101.994L-200.3 89.1235L-188.923 77.7453ZM-178.335 90.6156L-167.746 103.486L-179.123 114.864L-189.712 101.994L-178.335 90.6156ZM-157.158 116.356L-146.569 129.227L-157.946 140.605L-168.535 127.734L-157.158 116.356ZM-146.569 129.227L-135.981 142.097L-147.358 153.475L-157.946 140.605L-146.569 129.227ZM-104.215 180.708L-93.6268 193.578L-105.004 204.956L-115.592 192.086L-104.215 180.708ZM-327.362 -65.3205L-316.774 -52.4502L-328.151 -41.072L-338.739 -53.9423L-327.362 -65.3205ZM-316.774 -52.4502L-306.185 -39.5798L-317.562 -28.2016L-328.151 -41.072L-316.774 -52.4502ZM-306.185 -39.5798L-295.597 -26.7095L-306.974 -15.3313L-317.562 -28.2016L-306.185 -39.5798ZM-295.597 -26.7095L-285.008 -13.8392L-296.385 -2.46096L-306.974 -15.3313L-295.597 -26.7095ZM-285.008 -13.8392L-274.42 -0.968833L-285.797 10.4094L-296.385 -2.46096L-285.008 -13.8392ZM-274.42 -0.968833L-263.831 11.9015L-275.208 23.2797L-285.797 10.4094L-274.42 -0.968833ZM-263.831 11.9015L-253.243 24.7718L-264.62 36.15L-275.208 23.2797L-263.831 11.9015ZM-242.654 37.6422L-232.066 50.5125L-243.443 61.8907L-254.031 49.0204L-242.654 37.6422ZM-232.066 50.5125L-221.477 63.3828L-232.854 74.761L-243.443 61.8907L-232.066 50.5125ZM-189.712 101.994L-179.123 114.864L-190.5 126.242L-201.088 113.372L-189.712 101.994ZM-179.123 114.864L-168.535 127.734L-179.911 139.113L-190.5 126.242L-179.123 114.864ZM-157.946 140.605L-147.358 153.475L-158.734 164.853L-169.323 151.983L-157.946 140.605ZM-136.769 166.345L-126.181 179.216L-137.557 190.594L-148.146 177.724L-136.769 166.345ZM-115.592 192.086L-105.004 204.956L-116.38 216.335L-126.969 203.464L-115.592 192.086ZM-105.004 204.956L-94.4151 217.827L-105.792 229.205L-116.38 216.335L-105.004 204.956ZM-94.4151 217.827L-83.8266 230.697L-95.2034 242.075L-105.792 229.205L-94.4151 217.827ZM-83.8266 230.697L-73.238 243.567L-84.6149 254.946L-95.2034 242.075L-83.8266 230.697ZM-73.238 243.567L-62.6495 256.438L-74.0264 267.816L-84.6149 254.946L-73.238 243.567ZM-338.739 -53.9423L-328.151 -41.072L-339.527 -29.6938L-350.116 -42.5641L-338.739 -53.9423ZM-275.208 23.2797L-264.62 36.15L-275.996 47.5282L-286.585 34.6579L-275.208 23.2797ZM-232.854 74.761L-222.265 87.6314L-233.642 99.0096L-244.231 86.1392L-232.854 74.761ZM-211.677 100.502L-201.088 113.372L-212.465 124.75L-223.054 111.88L-211.677 100.502ZM-201.088 113.372L-190.5 126.242L-201.877 137.621L-212.465 124.75L-201.088 113.372ZM-169.323 151.983L-158.734 164.853L-170.111 176.232L-180.7 163.361L-169.323 151.983ZM-126.969 203.464L-116.38 216.335L-127.757 227.713L-138.346 214.843L-126.969 203.464ZM-95.2034 242.075L-84.6149 254.946L-95.9917 266.324L-106.58 253.454L-95.2034 242.075ZM-84.6149 254.946L-74.0264 267.816L-85.4032 279.194L-95.9917 266.324L-84.6149 254.946ZM-350.116 -42.5641L-339.527 -29.6938L-350.904 -18.3155L-361.493 -31.1859L-350.116 -42.5641ZM-328.939 -16.8234L-318.35 -3.95309L-329.727 7.42512L-340.316 -5.44521L-328.939 -16.8234ZM-318.35 -3.95309L-307.762 8.91724L-319.139 20.2954L-329.727 7.42512L-318.35 -3.95309ZM-307.762 8.91724L-297.173 21.7876L-308.55 33.1658L-319.139 20.2954L-307.762 8.91724ZM-286.585 34.6579L-275.996 47.5282L-287.373 58.9064L-297.962 46.0361L-286.585 34.6579ZM-265.408 60.3986L-254.819 73.2689L-266.196 84.6471L-276.785 71.7768L-265.408 60.3986ZM-223.054 111.88L-212.465 124.75L-223.842 136.128L-234.431 123.258L-223.054 111.88ZM-201.877 137.621L-191.288 150.491L-202.665 161.869L-213.254 148.999L-201.877 137.621ZM-191.288 150.491L-180.7 163.361L-192.077 174.739L-202.665 161.869L-191.288 150.491ZM-180.7 163.361L-170.111 176.232L-181.488 187.61L-192.077 174.739L-180.7 163.361ZM-170.111 176.232L-159.523 189.102L-170.9 200.48L-181.488 187.61L-170.111 176.232ZM-159.523 189.102L-148.934 201.972L-160.311 213.35L-170.9 200.48L-159.523 189.102ZM-148.934 201.972L-138.346 214.843L-149.723 226.221L-160.311 213.35L-148.934 201.972ZM-138.346 214.843L-127.757 227.713L-139.134 239.091L-149.723 226.221L-138.346 214.843ZM-127.757 227.713L-117.169 240.583L-128.546 251.961L-139.134 239.091L-127.757 227.713ZM-117.169 240.583L-106.58 253.454L-117.957 264.832L-128.546 251.961L-117.169 240.583ZM-106.58 253.454L-95.9917 266.324L-107.368 277.702L-117.957 264.832L-106.58 253.454ZM-95.9917 266.324L-85.4032 279.194L-96.78 290.572L-107.368 277.702L-95.9917 266.324ZM-361.493 -31.1859L-350.904 -18.3155L-362.281 -6.93734L-372.87 -19.8077L-361.493 -31.1859ZM-340.316 -5.44521L-329.727 7.42512L-341.104 18.8033L-351.693 5.93299L-340.316 -5.44521ZM-329.727 7.42512L-319.139 20.2954L-330.516 31.6737L-341.104 18.8033L-329.727 7.42512ZM-319.139 20.2954L-308.55 33.1658L-319.927 44.544L-330.516 31.6737L-319.139 20.2954ZM-297.962 46.0361L-287.373 58.9064L-298.75 70.2846L-309.339 57.4143L-297.962 46.0361ZM-276.785 71.7768L-266.196 84.6471L-277.573 96.0253L-288.161 83.155L-276.785 71.7768ZM-266.196 84.6471L-255.608 97.5174L-266.984 108.896L-277.573 96.0253L-266.196 84.6471ZM-255.608 97.5174L-245.019 110.388L-256.396 121.766L-266.984 108.896L-255.608 97.5174ZM-202.665 161.869L-192.077 174.739L-203.453 186.118L-214.042 173.247L-202.665 161.869ZM-181.488 187.61L-170.9 200.48L-182.276 211.858L-192.865 198.988L-181.488 187.61ZM-170.9 200.48L-160.311 213.35L-171.688 224.729L-182.276 211.858L-170.9 200.48ZM-160.311 213.35L-149.723 226.221L-161.099 237.599L-171.688 224.729L-160.311 213.35ZM-149.723 226.221L-139.134 239.091L-150.511 250.469L-161.099 237.599L-149.723 226.221ZM-117.957 264.832L-107.368 277.702L-118.745 289.08L-129.334 276.21L-117.957 264.832ZM-107.368 277.702L-96.78 290.572L-108.157 301.951L-118.745 289.08L-107.368 277.702ZM-372.87 -19.8077L-362.281 -6.93734L-373.658 4.44086L-384.246 -8.42947L-372.87 -19.8077ZM-351.693 5.93299L-341.104 18.8033L-352.481 30.1815L-363.069 17.3112L-351.693 5.93299ZM-341.104 18.8033L-330.516 31.6737L-341.892 43.0519L-352.481 30.1815L-341.104 18.8033ZM-330.516 31.6737L-319.927 44.544L-331.304 55.9222L-341.892 43.0519L-330.516 31.6737ZM-309.339 57.4143L-298.75 70.2846L-310.127 81.6629L-320.715 68.7925L-309.339 57.4143ZM-288.161 83.155L-277.573 96.0253L-288.95 107.404L-299.538 94.5332L-288.161 83.155ZM-266.984 108.896L-256.396 121.766L-267.773 133.144L-278.361 120.274L-266.984 108.896ZM-256.396 121.766L-245.807 134.636L-257.184 146.015L-267.773 133.144L-256.396 121.766ZM-245.807 134.636L-235.219 147.507L-246.596 158.885L-257.184 146.015L-245.807 134.636ZM-203.453 186.118L-192.865 198.988L-204.242 210.366L-214.83 197.496L-203.453 186.118ZM-192.865 198.988L-182.276 211.858L-193.653 223.236L-204.242 210.366L-192.865 198.988ZM-171.688 224.729L-161.099 237.599L-172.476 248.977L-183.065 236.107L-171.688 224.729ZM-150.511 250.469L-139.922 263.34L-151.299 274.718L-161.888 261.847L-150.511 250.469ZM-118.745 289.08L-108.157 301.951L-119.534 313.329L-130.122 300.458L-118.745 289.08ZM-384.246 -8.42947L-373.658 4.44086L-385.035 15.8191L-395.623 2.94874L-384.246 -8.42947ZM-320.715 68.7925L-310.127 81.6629L-321.504 93.0411L-332.092 80.1707L-320.715 68.7925ZM-299.538 94.5332L-288.95 107.404L-300.327 118.782L-310.915 105.911L-299.538 94.5332ZM-267.773 133.144L-257.184 146.015L-268.561 157.393L-279.15 144.522L-267.773 133.144ZM-236.007 171.755L-225.419 184.626L-236.796 196.004L-247.384 183.133L-236.007 171.755ZM-214.83 197.496L-204.242 210.366L-215.619 221.744L-226.207 208.874L-214.83 197.496ZM-204.242 210.366L-193.653 223.236L-205.03 234.615L-215.619 221.744L-204.242 210.366ZM-193.653 223.236L-183.065 236.107L-194.442 247.485L-205.03 234.615L-193.653 223.236ZM-183.065 236.107L-172.476 248.977L-183.853 260.355L-194.442 247.485L-183.065 236.107ZM-172.476 248.977L-161.888 261.847L-173.264 273.226L-183.853 260.355L-172.476 248.977ZM-130.122 300.458L-119.534 313.329L-130.91 324.707L-141.499 311.837L-130.122 300.458ZM-395.623 2.94874L-385.035 15.8191L-396.412 27.1973L-407 14.3269L-395.623 2.94874ZM-385.035 15.8191L-374.446 28.6894L-385.823 40.0676L-396.412 27.1973L-385.035 15.8191ZM-374.446 28.6894L-363.858 41.5597L-375.234 52.9379L-385.823 40.0676L-374.446 28.6894ZM-363.858 41.5597L-353.269 54.4301L-364.646 65.8083L-375.234 52.9379L-363.858 41.5597ZM-353.269 54.4301L-342.681 67.3004L-354.057 78.6786L-364.646 65.8083L-353.269 54.4301ZM-342.681 67.3004L-332.092 80.1707L-343.469 91.5489L-354.057 78.6786L-342.681 67.3004ZM-332.092 80.1707L-321.504 93.0411L-332.88 104.419L-343.469 91.5489L-332.092 80.1707ZM-310.915 105.911L-300.327 118.782L-311.703 130.16L-322.292 117.29L-310.915 105.911ZM-300.327 118.782L-289.738 131.652L-301.115 143.03L-311.703 130.16L-300.327 118.782ZM-289.738 131.652L-279.15 144.522L-290.526 155.901L-301.115 143.03L-289.738 131.652ZM-279.15 144.522L-268.561 157.393L-279.938 168.771L-290.526 155.901L-279.15 144.522ZM-236.796 196.004L-226.207 208.874L-237.584 220.252L-248.172 207.382L-236.796 196.004ZM-162.676 286.096L-152.087 298.966L-163.464 310.345L-174.053 297.474L-162.676 286.096ZM-152.087 298.966L-141.499 311.837L-152.876 323.215L-163.464 310.345L-152.087 298.966ZM-141.499 311.837L-130.91 324.707L-142.287 336.085L-152.876 323.215L-141.499 311.837Z" fill="#FFADAD" fill-opacity="0.15"/>
<circle cx="302.319" cy="26.3191" r="5.31915" fill="white" fill-opacity="0.1"/>
<circle cx="302.319" cy="51.8511" r="5.31915" fill="white" fill-opacity="0.1"/>
<circle cx="302.319" cy="39.0851" r="5.31915" fill="white" fill-opacity="0.1"/>
<circle cx="302.319" cy="64.617" r="5.31915" fill="white" fill-opacity="0.1"/>
<circle cx="353.383" cy="39.0851" r="5.31915" fill="white" fill-opacity="0.1"/>
<circle cx="353.383" cy="64.617" r="5.31915" fill="white" fill-opacity="0.1"/>
<circle cx="353.383" cy="26.3191" r="5.31915" fill="white" fill-opacity="0.1"/>
<circle cx="353.383" cy="51.8511" r="5.31915" fill="white" fill-opacity="0.1"/>
<circle cx="327.851" cy="26.3191" r="5.31915" fill="white" fill-opacity="0.1"/>
<circle cx="327.851" cy="51.8511" r="5.31915" fill="white" fill-opacity="0.1"/>
<circle cx="327.851" cy="39.0851" r="5.31915" fill="white" fill-opacity="0.1"/>
<circle cx="327.851" cy="64.617" r="5.31915" fill="white" fill-opacity="0.1"/>
<circle cx="378.915" cy="39.0851" r="5.31915" fill="white" fill-opacity="0.1"/>
<circle cx="378.915" cy="64.617" r="5.31915" fill="white" fill-opacity="0.1"/>
<circle cx="378.915" cy="26.3191" r="5.31915" fill="white" fill-opacity="0.1"/>
<circle cx="378.915" cy="51.8511" r="5.31915" fill="white" fill-opacity="0.1"/>
<circle cx="315.085" cy="26.3191" r="5.31915" fill="white" fill-opacity="0.1"/>
<circle cx="315.085" cy="51.8511" r="5.31915" fill="white" fill-opacity="0.1"/>
<circle cx="315.085" cy="39.0851" r="5.31915" fill="white" fill-opacity="0.1"/>
<circle cx="315.085" cy="64.617" r="5.31915" fill="white" fill-opacity="0.1"/>
<circle cx="366.149" cy="39.0851" r="5.31915" fill="white" fill-opacity="0.1"/>
<circle cx="366.149" cy="64.617" r="5.31915" fill="white" fill-opacity="0.1"/>
<circle cx="366.149" cy="26.3191" r="5.31915" fill="white" fill-opacity="0.1"/>
<circle cx="366.149" cy="51.8511" r="5.31915" fill="white" fill-opacity="0.1"/>
<circle cx="340.617" cy="26.3191" r="5.31915" fill="white" fill-opacity="0.1"/>
<circle cx="340.617" cy="51.8511" r="5.31915" fill="white" fill-opacity="0.1"/>
<circle cx="340.617" cy="39.0851" r="5.31915" fill="white" fill-opacity="0.1"/>
<circle cx="340.617" cy="64.617" r="5.31915" fill="white" fill-opacity="0.1"/>
<circle cx="391.681" cy="39.0851" r="5.31915" fill="white" fill-opacity="0.1"/>
<circle cx="391.681" cy="64.617" r="5.31915" fill="white" fill-opacity="0.1"/>
<circle cx="391.681" cy="26.3191" r="5.31915" fill="white" fill-opacity="0.1"/>
<circle cx="391.681" cy="51.8511" r="5.31915" fill="white" fill-opacity="0.1"/>
</g>
</svg>
